<svg width="21" height="21" viewBox="0 0 21 21" fill="none" xmlns="http://www.w3.org/2000/svg">
<g clip-path="url(#clip0_136_329)">
<path d="M20.9508 3.83423C20.8901 6.22492 20.3414 8.34769 19.5943 10.424C18.765 12.7317 17.6863 14.9134 16.2055 16.8808C15.2734 18.1185 14.2082 19.2152 12.8132 19.9439C9.36282 21.747 5.29937 21.0915 2.55942 18.2837C0.8159 16.4941 -0.0411151 14.3445 0.0562933 11.852C0.144765 9.57295 1.03931 7.62611 2.66845 6.02488C4.06702 4.65048 5.7033 3.61454 7.44682 2.74293C9.8159 1.55785 12.2985 0.70053 14.9133 0.25222C16.0733 0.0530706 17.2422 -0.0469507 18.4129 0.165595C19.9634 0.446904 20.6738 1.2051 20.8659 2.76793C20.916 3.17606 20.933 3.58864 20.9517 3.83423H20.9508ZM17.1242 0.80323C16.555 0.850562 16.0938 0.872888 15.6372 0.930936C13.6854 1.1792 11.815 1.73378 9.99284 2.45983C7.72028 3.36538 5.563 4.48258 3.72028 6.11507C1.38248 8.18605 0.487035 10.792 1.12242 13.848C2.21358 19.0964 8.31009 21.7112 12.9071 18.9473C14.1421 18.2043 15.0795 17.1665 15.8793 15.9984C18.1045 12.7468 19.5138 9.1684 20.0742 5.26579C20.2037 4.36024 20.2216 3.44665 20.042 2.53842C19.8677 1.6543 19.353 1.11133 18.4602 0.962192C17.9839 0.882711 17.4995 0.846989 17.1242 0.80323Z" fill="black" stroke="black" stroke-width="1.09" stroke-miterlimit="10"/>
<path d="M17.1242 0.804688C17.4995 0.848447 17.9839 0.884169 18.4602 0.96365C19.353 1.1119 19.8677 1.65487 20.042 2.53988C20.2207 3.44811 20.2037 4.36169 20.0742 5.26724C19.5138 9.16986 18.1045 12.7474 15.8793 15.9999C15.0795 17.168 14.1421 18.2066 12.907 18.9487C8.30919 21.7127 2.21357 19.0988 1.12242 13.8494C0.487031 10.7934 1.38247 8.1884 3.72028 6.11653C5.56299 4.48404 7.72027 3.36684 9.99284 2.46129C11.8141 1.73524 13.6854 1.18066 15.6372 0.932393C16.0938 0.874345 16.5549 0.852912 17.1242 0.804688ZM18.0518 3.38738C17.941 3.25967 17.8668 3.11768 17.7489 3.04981C17.5478 2.9346 17.3843 3.05785 17.2377 3.2043C13.9732 6.47018 10.7069 9.73427 7.44145 12.9984C7.20642 13.2341 7.17961 13.4529 7.35834 13.6315C7.53618 13.8092 7.75781 13.7807 7.99373 13.5494C8.02859 13.5154 8.06254 13.4806 8.0965 13.4467C9.82394 11.7204 11.5514 9.99414 13.2788 8.26699C14.7775 6.76935 16.277 5.2726 17.7721 3.77139C17.8704 3.67315 17.9383 3.54456 18.0518 3.38649V3.38738ZM11.8436 17.3743C11.8972 17.3511 12.0071 17.3296 12.0858 17.2671C12.5728 16.884 13.0965 16.5339 13.5272 16.0945C14.571 15.03 15.336 13.761 16.0438 12.4581C16.7775 11.1087 17.4155 9.71462 17.966 8.28128C18.0715 8.00622 18.0259 7.81779 17.8338 7.70705C17.6005 7.57398 17.3753 7.69722 17.2377 8.00622C16.7015 9.20737 16.1894 10.4201 15.6104 11.5998C14.9535 12.9358 14.1796 14.2075 13.1939 15.3346C12.739 15.8543 12.235 16.3187 11.6166 16.6438C11.4406 16.7366 11.361 16.8956 11.4164 17.0921C11.4683 17.2743 11.6005 17.3707 11.8445 17.3743H11.8436ZM2.93028 12.559C2.9839 13.0144 3.02322 13.4726 3.0965 13.9253C3.13851 14.1861 3.34315 14.3031 3.57372 14.2495C3.78283 14.2004 3.87398 14.0084 3.84896 13.7574C3.80696 13.3252 3.7444 12.8876 3.76585 12.4572C3.84896 10.8363 4.53082 9.45742 5.5612 8.23484C6.46111 7.16586 7.55852 6.33443 8.74798 5.61464C8.98926 5.46907 9.05718 5.24581 8.93654 5.04398C8.81768 4.84483 8.58623 4.80643 8.34494 4.952C7.17604 5.65483 6.09382 6.46839 5.17872 7.48736C3.88203 8.93141 3.06433 10.5853 2.93028 12.559ZM13.731 11.348C13.739 11.0685 13.5558 10.8658 13.3369 10.9077C13.202 10.9336 13.0572 11.031 12.966 11.1381C11.8186 12.4911 10.5916 13.7655 9.22519 14.8996C8.08846 15.8427 6.89186 16.6902 5.45843 17.1394C5.22072 17.2135 5.12242 17.4189 5.18944 17.6351C5.25557 17.8467 5.46916 17.9432 5.72474 17.8664C6.46469 17.644 7.1528 17.3064 7.80338 16.8947C10.0652 15.4667 11.9151 13.5878 13.6229 11.5561C13.6818 11.4855 13.7104 11.3891 13.731 11.3489V11.348ZM13.1474 5.144C13.151 4.785 12.8963 4.5921 12.6497 4.66979C12.5889 4.68944 12.5281 4.71713 12.4754 4.75374C11.4844 5.44943 10.4629 6.10671 9.51563 6.85865C8.83645 7.39805 8.25289 8.05891 7.63627 8.67511C7.44056 8.87158 7.45218 9.12521 7.62733 9.27434C7.79981 9.4217 8.03842 9.38419 8.2243 9.18058C8.23502 9.16897 8.24485 9.15557 8.25557 9.14396C8.81679 8.59742 9.336 7.99729 9.94816 7.51594C10.8865 6.77828 11.8901 6.12457 12.8606 5.42888C12.9875 5.33779 13.0858 5.20562 13.1465 5.144H13.1474Z" fill="white"/>
<path d="M18.0518 3.38991C17.9383 3.54798 17.8704 3.67658 17.7721 3.77482C16.2761 5.27603 14.7774 6.77278 13.2788 8.27042C11.5513 9.99668 9.82388 11.7229 8.09645 13.4501C8.06249 13.484 8.02853 13.5189 7.99368 13.5528C7.75865 13.7832 7.53612 13.8118 7.35829 13.6349C7.17956 13.4563 7.20637 13.2375 7.4414 13.0018C10.7068 9.7368 13.9731 6.47271 17.2376 3.20773C17.3842 3.06127 17.5477 2.93803 17.7488 3.05323C17.8668 3.12021 17.941 3.2631 18.0518 3.39081V3.38991Z" fill="black"/>
<path d="M11.8435 17.3766C11.6004 17.373 11.4673 17.2766 11.4155 17.0944C11.36 16.8979 11.4387 16.739 11.6156 16.6461C12.234 16.3201 12.7381 15.8566 13.1929 15.3369C14.1795 14.2099 14.9525 12.9391 15.6094 11.6022C16.1894 10.4224 16.7014 9.20969 17.2367 8.00854C17.3743 7.69954 17.5995 7.5763 17.8328 7.70937C18.0249 7.81921 18.0714 8.00854 17.9651 8.2836C17.4155 9.71783 16.7765 11.111 16.0428 12.4604C15.335 13.7624 14.5701 15.0324 13.5263 16.0969C13.0946 16.5362 12.5718 16.8863 12.0848 17.2694C12.0062 17.3311 11.8962 17.3534 11.8426 17.3766H11.8435Z" fill="black"/>
<path d="M2.93018 12.562C3.06422 10.5884 3.88192 8.93449 5.17861 7.49043C6.09371 6.47146 7.17593 5.6579 8.34483 4.95507C8.58612 4.8095 8.81758 4.8479 8.93643 5.04705C9.05707 5.24799 8.98826 5.47214 8.74787 5.61771C7.55842 6.33661 6.46101 7.16804 5.5611 8.23791C4.53071 9.46138 3.84975 10.8394 3.76574 12.4602C3.7434 12.8916 3.80685 13.3283 3.84885 13.7605C3.87298 14.0115 3.78272 14.2026 3.57361 14.2526C3.34394 14.3071 3.1384 14.1901 3.0964 13.9284C3.02401 13.4756 2.9838 13.0175 2.93018 12.562Z" fill="black"/>
<path d="M13.7311 11.3451C13.7105 11.3853 13.6828 11.4817 13.623 11.5523C11.9152 13.584 10.0653 15.463 7.80349 16.8909C7.15291 17.3017 6.46479 17.6402 5.72484 17.8626C5.46926 17.9394 5.25568 17.8429 5.18955 17.6313C5.12252 17.4152 5.22082 17.2106 5.45854 17.1356C6.89196 16.6864 8.08767 15.8389 9.22529 14.8959C10.5926 13.7626 11.8187 12.4873 12.9661 11.1344C13.0573 11.0272 13.2021 10.9298 13.337 10.9039C13.5559 10.862 13.7391 11.0647 13.7311 11.3442V11.3451Z" fill="black"/>
<path d="M13.1474 5.14751C13.0866 5.20913 12.9883 5.3413 12.8614 5.43239C11.8909 6.12897 10.8864 6.78268 9.94899 7.51945C9.33684 8.0008 8.81763 8.60092 8.25641 9.14747C8.24479 9.15908 8.23586 9.17248 8.22513 9.18408C8.03836 9.3877 7.80065 9.42521 7.62817 9.27785C7.45391 9.12872 7.4414 8.8742 7.63711 8.67862C8.25373 8.06152 8.83729 7.40067 9.51646 6.86216C10.4637 6.11022 11.4852 5.45293 12.4762 4.75725C12.5281 4.72064 12.5888 4.69295 12.6505 4.6733C12.8972 4.59561 13.1527 4.78851 13.1483 5.14751H13.1474Z" fill="black"/>
</g>
<defs>
<clipPath id="clip0_136_329">
<rect width="21" height="21" fill="white"/>
</clipPath>
</defs>
</svg>
