<svg width="24" height="26" viewBox="0 0 24 26" fill="none" xmlns="http://www.w3.org/2000/svg">
<g clip-path="url(#clip0_124_2518)">
<path d="M22.551 26.0009H22.1013C22.1013 26.0009 22.018 25.9672 21.9847 25.9504C20.9188 25.8157 19.8529 25.5799 18.8369 25.2263C14.8064 23.8455 11.9917 21.2185 10.6426 17.076C10.626 17.0255 10.5926 16.9582 10.5593 16.8908C10.4761 16.975 10.4261 17.0424 10.3761 17.1097C9.6433 17.9854 8.74393 18.6253 7.69466 19.0463C6.54545 19.5009 5.34629 19.7872 4.13047 19.9556C3.19778 20.0903 2.24844 20.1745 1.31575 20.2587C0.799445 20.3092 0.433033 20.0061 0.316447 19.5009C0.266482 19.3157 0.233171 19.1305 0.199861 18.9621C0.133241 18.5242 0.0666204 18.0864 0 17.6318C0 17.2108 0 16.7898 0 16.3688C0 16.3014 0.0333102 16.2172 0.0499653 16.1499C0.233171 14.0281 0.965996 12.1253 2.2984 10.475C3.71409 8.72372 5.51284 7.71336 7.77793 7.69652C8.29424 7.69652 8.8272 7.76387 9.32686 7.79755C9.36017 7.20817 9.34351 6.60196 9.41013 5.99574C9.57668 4.51387 10.1596 3.23408 11.2422 2.20688C12.2248 1.28071 13.4074 0.741852 14.6898 0.421904C16.9549 -0.150635 19.2533 -0.0495988 21.535 0.304028C22.1346 0.405064 22.4178 0.775531 22.3678 1.38175C22.2346 2.71206 21.9181 3.99185 21.4351 5.23797C20.7356 7.02294 19.7196 8.57216 18.1041 9.66672C18.0874 9.66672 18.0708 9.71724 18.0541 9.75092C20.6856 10.3908 22.2845 12.1421 23.2172 14.6007C23.7835 16.0994 24.0167 17.6654 24.0167 19.2652C24.0167 21.1849 23.7502 23.054 23.3505 24.9232C23.2505 25.4115 23.084 25.8325 22.5677 26.0009H22.551ZM12.4747 11.1486C12.4747 11.1486 12.4247 11.1991 12.3914 11.2159C12.3914 12.8494 12.0083 14.3986 11.2422 15.8468C11.2089 15.9141 11.2089 16.0152 11.2422 16.0825C12.1249 19.4672 14.0402 22.0268 17.1548 23.6266C18.7536 24.4517 20.4525 24.9064 22.2346 25.1253C22.4178 25.1421 22.4178 25.0411 22.4511 24.9232C22.9674 22.7341 23.2505 20.5113 23.1006 18.2548C23.0007 16.7056 22.6509 15.19 21.9181 13.8092C20.9854 12.0748 19.6197 10.9128 17.6544 10.5424C17.2047 10.4582 16.7384 10.3908 16.272 10.5424C15.7557 10.6939 15.2394 10.795 14.7065 10.8792C14.3734 10.9297 14.0402 10.9465 13.7071 10.9634C14.3067 11.4854 14.8897 12.0074 15.4726 12.5294C15.5226 12.5631 15.5892 12.5968 15.6558 12.5968C15.9556 12.6305 16.272 12.6641 16.5718 12.6978C17.5711 12.8157 18.5871 12.9167 19.5864 13.0346C19.8695 13.0683 20.0194 13.2704 19.9861 13.5061C19.9528 13.7419 19.7529 13.9102 19.4865 13.8766C19.0035 13.826 18.5205 13.7587 18.0375 13.7082C17.5212 13.6577 17.0215 13.5903 16.4552 13.5398C16.5052 13.6071 16.5219 13.624 16.5385 13.6577C17.0049 14.247 17.4545 14.8196 17.9209 15.3921C17.9709 15.4595 18.0708 15.51 18.1707 15.5268C19.1201 15.6952 20.0694 15.8468 21.0187 16.0152C21.3352 16.0657 21.4851 16.2846 21.4351 16.5372C21.3851 16.7898 21.152 16.9245 20.8522 16.874C20.4192 16.7898 19.9861 16.7224 19.5364 16.6551C19.27 16.6045 18.9868 16.5709 18.687 16.5204C19.0201 17.0929 19.3366 17.6149 19.6364 18.1706C19.7529 18.3727 19.8862 18.4737 20.1027 18.5411C20.7189 18.7095 21.3352 18.8947 21.9514 19.0799C22.2179 19.1641 22.3345 19.3662 22.2679 19.602C22.2012 19.8545 21.9847 19.9724 21.7183 19.9051C21.585 19.8714 21.4518 19.8377 21.3019 19.7872C21.0021 19.703 20.6856 19.602 20.3359 19.5009C20.4025 19.6356 20.4358 19.703 20.4691 19.7872C20.7689 20.5113 21.0687 21.2354 21.3685 21.9595C21.5017 22.2794 21.4018 22.532 21.1686 22.6162C20.9022 22.7172 20.7023 22.5825 20.569 22.2457C20.4358 21.8921 20.3026 21.5216 20.1527 21.168C19.9861 20.7807 19.8196 20.4102 19.6197 19.9724C19.5031 20.4608 19.4032 20.8649 19.3033 21.2691C19.22 21.5722 19.0201 21.7237 18.7703 21.6564C18.5205 21.589 18.4039 21.3533 18.4872 21.0501C18.6537 20.3597 18.8203 19.6693 18.9868 18.9789C19.0035 18.861 18.9868 18.7263 18.9368 18.6253C18.6204 18.0696 18.2873 17.5139 17.9542 16.975C17.9209 16.9245 17.8876 16.8908 17.8376 16.8403C17.7876 17.0087 17.7377 17.1434 17.7044 17.2781C17.5212 17.9012 17.338 18.5242 17.1548 19.1473C17.1048 19.3494 16.9549 19.5009 16.755 19.4672C16.6218 19.4672 16.4386 19.3662 16.372 19.2483C16.3053 19.1473 16.322 18.9452 16.372 18.8105C16.5885 18.0022 16.805 17.1939 17.0715 16.4025C17.2047 15.9983 17.1548 15.7121 16.8883 15.409C16.4219 14.8869 15.9889 14.3144 15.5059 13.725C15.3893 14.1965 15.2894 14.6007 15.1895 15.0048C15.0229 15.6447 14.873 16.3014 14.7065 16.9413C14.6398 17.2108 14.4233 17.3286 14.2068 17.2781C13.957 17.2276 13.8404 17.0255 13.8904 16.7393C13.8904 16.6887 13.907 16.6382 13.9237 16.5877C14.1901 15.5268 14.4233 14.4659 14.7065 13.4219C14.7897 13.1188 14.7398 12.9504 14.5066 12.7652C13.8404 12.2263 13.1742 11.6706 12.508 11.1317L12.4747 11.1486ZM3.7474 14.3817C3.4143 14.3817 3.06454 14.3817 2.71478 14.3817C2.51492 14.3817 2.38168 14.2976 2.2984 14.1123C2.16516 13.8092 2.38168 13.5229 2.74809 13.5061C3.2644 13.5061 3.78071 13.5061 4.29702 13.5061C4.39695 13.5061 4.53019 13.4387 4.61346 13.3545C4.97988 13.0009 5.31298 12.6305 5.67939 12.2768C5.96253 12.0074 6.27897 11.7548 6.62873 11.4517C6.49549 11.4517 6.41221 11.4517 6.32894 11.4517C5.76266 11.4517 5.19639 11.4517 4.63012 11.4517C4.43026 11.4517 4.26371 11.3507 4.19709 11.1654C4.13047 10.9802 4.16377 10.795 4.33033 10.6939C4.43026 10.6266 4.58015 10.5929 4.71339 10.5929C5.7127 10.5929 6.72866 10.5929 7.72797 10.5929C7.81124 10.5929 7.92783 10.5929 7.99445 10.5592C8.52741 10.2729 9.04372 9.98667 9.57668 9.68356C9.52672 9.43097 9.47675 9.17838 9.44344 8.90895C9.42679 8.7574 9.36017 8.69004 9.21027 8.65636C8.3109 8.45429 7.41152 8.43745 6.49549 8.63952C4.86329 8.99315 3.61416 9.95299 2.64816 11.3001C1.21582 13.2872 0.632894 15.5268 0.866065 17.9685C0.916031 18.44 1.01596 18.9115 1.09924 19.383C1.18251 19.383 1.21582 19.383 1.24913 19.383C2.79806 19.2652 4.34698 19.0968 5.8626 18.6926C6.89521 18.4232 7.91117 18.0864 8.76058 17.4128C10.8258 15.7289 11.4754 13.4387 11.4754 10.8792C11.4754 10.8118 11.3921 10.7276 11.3255 10.7108C10.9591 10.6097 10.5926 10.5424 10.2262 10.4582C10.143 10.4413 10.0264 10.4582 9.94309 10.5087C9.51006 10.7276 9.07703 10.9634 8.644 11.1654C8.46079 11.2496 8.42748 11.3675 8.46079 11.5696C8.59403 12.4789 8.72727 13.3882 8.84386 14.2976C8.89382 14.6175 8.74393 14.8196 8.47745 14.8533C8.22762 14.8869 8.04441 14.7017 7.99445 14.4154C7.96114 14.146 7.92783 13.8766 7.87786 13.6071C7.79459 13.0178 7.71131 12.4452 7.62804 11.8222C7.51145 11.8895 7.42817 11.94 7.36155 12.0074C6.77863 12.5126 6.21235 13.0178 5.62942 13.5061C5.47953 13.6408 5.44622 13.7924 5.47953 13.9776C5.64608 14.8869 5.79597 15.7963 5.94587 16.7056C5.99584 17.0087 5.87925 17.2276 5.62942 17.2613C5.36294 17.3118 5.17974 17.1602 5.11312 16.874C5.02984 16.3856 4.94657 15.9141 4.86329 15.4258C4.81332 15.1564 4.76336 14.8869 4.73005 14.6343C4.69674 14.6343 4.68008 14.6343 4.64677 14.6343C4.34698 15.1058 4.03053 15.5773 3.7474 16.0657C3.49757 16.5203 3.28105 17.0087 3.06454 17.4802C2.91464 17.8001 2.71478 17.918 2.46495 17.817C2.21513 17.7159 2.14851 17.4634 2.28175 17.1266C2.33171 17.0087 2.38168 16.874 2.43164 16.7561C2.84802 15.9815 3.2644 15.19 3.68078 14.3986L3.7474 14.3817ZM13.424 6.87139C13.5406 6.90506 13.6072 6.93874 13.6738 6.95558C14.3734 7.19133 15.0895 7.42709 15.789 7.66284C15.9722 7.7302 16.1221 7.81439 16.1721 8.0333C16.2387 8.38693 15.9223 8.62268 15.5559 8.50481C14.6731 8.21854 13.7738 7.91543 12.891 7.61232C12.7412 7.5618 12.6412 7.57864 12.5413 7.69652C11.9917 8.30273 11.4421 8.92579 10.8924 9.53201C10.8591 9.58253 10.8258 9.63305 10.7758 9.7004C11.6919 9.91931 12.5913 10.0709 13.5073 10.0709C15.9223 10.1045 17.9042 9.2289 19.3532 7.25869C20.6523 5.5074 21.2186 3.48667 21.5017 1.34807C21.5184 1.16284 21.4351 1.12916 21.2852 1.09548C20.1194 0.893406 18.9368 0.809209 17.7543 0.842888C16.4719 0.893406 15.1895 1.02812 13.9736 1.49962C12.4747 2.07216 11.2922 3.01517 10.6593 4.54755C10.2096 5.64211 10.1263 6.77035 10.2262 7.93227C10.2429 8.2017 10.2929 8.45429 10.3262 8.77424C10.4261 8.65636 10.4927 8.589 10.5427 8.52165C11.109 7.93227 11.6586 7.35973 12.2248 6.78719C12.3414 6.66931 12.408 6.55144 12.3914 6.3662C12.3914 5.49056 12.3914 4.61491 12.3914 3.72242C12.3914 3.45299 12.5579 3.2846 12.8078 3.26776C13.0409 3.26776 13.2241 3.43615 13.2408 3.68874C13.2408 3.7561 13.2408 3.82346 13.2408 3.89082C13.2408 4.46335 13.2408 5.03589 13.2408 5.60843C13.2408 5.67579 13.2408 5.72631 13.2575 5.79367C13.8737 5.35584 14.4733 4.91802 15.0729 4.48019C15.2061 4.37916 15.2727 4.27812 15.2561 4.10973C15.2561 3.50351 15.2561 2.89729 15.2561 2.29107C15.2561 1.98797 15.4393 1.80273 15.6891 1.80273C15.9389 1.80273 16.1055 1.98797 16.1221 2.29107C16.1221 2.52683 16.1221 2.76258 16.1221 2.99833C16.1221 3.25092 16.1221 3.50351 16.1221 3.80662C16.272 3.72242 16.372 3.65506 16.4719 3.60455C17.2547 3.18356 18.0541 2.76258 18.8536 2.35843C19.17 2.20688 19.4698 2.34159 19.5198 2.6447C19.5531 2.88045 19.4198 3.03201 19.22 3.13304C18.4372 3.53719 17.6544 3.95817 16.8716 4.37916C16.7883 4.42968 16.7051 4.48019 16.6051 4.54755C17.1714 4.7833 17.6877 4.96854 18.204 5.20429C18.3373 5.27164 18.4872 5.40636 18.5371 5.54107C18.5704 5.65895 18.5038 5.87786 18.4205 5.92838C18.304 6.01258 18.0874 6.04626 17.9375 5.99574C17.2547 5.74315 16.6051 5.47372 15.9389 5.18745C15.7724 5.12009 15.6558 5.13693 15.5059 5.23797C15.2061 5.47372 14.8897 5.67579 14.5899 5.8947C14.2068 6.18097 13.8404 6.48408 13.4407 6.80403L13.424 6.87139Z" fill="black"/>
<path d="M12.4747 11.1515C13.1409 11.6904 13.8071 12.2461 14.4733 12.785C14.7065 12.9702 14.7565 13.1386 14.6732 13.4417C14.3901 14.4857 14.1402 15.5466 13.8904 16.6075C13.8904 16.658 13.8571 16.7085 13.8571 16.759C13.8071 17.0453 13.9404 17.2474 14.1735 17.2979C14.3901 17.3484 14.6066 17.2137 14.6732 16.9611C14.8397 16.3212 14.9896 15.6645 15.1562 15.0246C15.2561 14.6204 15.356 14.2331 15.4726 13.7448C15.9556 14.351 16.3887 14.9067 16.855 15.4287C17.1215 15.7487 17.1715 16.035 17.0382 16.4223C16.7717 17.2137 16.5552 18.022 16.3387 18.8303C16.3054 18.965 16.2887 19.1502 16.3387 19.2681C16.4053 19.386 16.5885 19.4702 16.7218 19.487C16.9216 19.5039 17.0549 19.3691 17.1215 19.1671C17.3047 18.544 17.4879 17.921 17.6711 17.2979C17.7044 17.1632 17.7544 17.0285 17.8043 16.8601C17.8543 16.9106 17.9043 16.9443 17.9209 16.9948C18.254 17.5505 18.5871 18.0894 18.9036 18.6451C18.9536 18.7461 18.9702 18.8976 18.9536 18.9987C18.8037 19.6891 18.6204 20.3795 18.4539 21.0699C18.3873 21.3899 18.4872 21.6088 18.737 21.6761C18.9869 21.7435 19.2034 21.5919 19.27 21.2888C19.3699 20.8847 19.4699 20.4637 19.5864 19.9922C19.7863 20.43 19.9529 20.8173 20.1194 21.1878C20.2693 21.5414 20.4025 21.9119 20.5358 22.2655C20.669 22.6023 20.8855 22.737 21.1354 22.636C21.3852 22.5349 21.4685 22.2824 21.3352 21.9793C21.0354 21.2552 20.7356 20.5311 20.4359 19.807C20.4025 19.7228 20.3692 19.6554 20.3026 19.5207C20.6524 19.6217 20.9688 19.7059 21.2686 19.807C21.4019 19.8407 21.5351 19.8912 21.685 19.9248C21.9515 19.9922 22.168 19.8743 22.2346 19.6217C22.3012 19.386 22.1846 19.1839 21.9182 19.0997C21.3019 18.9145 20.6857 18.7293 20.0694 18.5609C19.8529 18.4935 19.7197 18.3925 19.6031 18.1904C19.3033 17.6515 18.9869 17.1295 18.6538 16.5401C18.9536 16.5906 19.22 16.6243 19.5032 16.6748C19.9362 16.7422 20.3692 16.8264 20.8189 16.8938C21.1187 16.9443 21.3519 16.8264 21.4019 16.557C21.4518 16.3044 21.2853 16.0855 20.9855 16.035C20.0361 15.8666 19.0868 15.715 18.1375 15.5466C18.0542 15.5466 17.9542 15.4793 17.8876 15.4119C17.4213 14.8394 16.9716 14.25 16.5053 13.6774C16.4886 13.6606 16.4719 13.6269 16.422 13.5596C16.9716 13.6269 17.4879 13.6774 18.0042 13.728C18.4872 13.7785 18.9702 13.8458 19.4532 13.8963C19.7197 13.93 19.9362 13.7616 19.9529 13.5259C19.9862 13.2733 19.8363 13.0881 19.5531 13.0544C18.5538 12.9365 17.5379 12.8186 16.5386 12.7176C16.2388 12.6839 15.9223 12.6502 15.6225 12.6166C15.5559 12.6166 15.4893 12.5829 15.4393 12.5492C14.8564 12.044 14.2735 11.522 13.6739 10.9831C14.007 10.9495 14.3401 10.9495 14.6732 10.8989C15.2062 10.8147 15.7225 10.7137 16.2388 10.5622C16.7051 10.4274 17.1715 10.4948 17.6211 10.5622C19.5864 10.9158 20.9522 12.0777 21.8848 13.829C22.6177 15.2098 22.9674 16.7085 23.0674 18.2746C23.2173 20.5311 22.9341 22.7539 22.4178 24.943C22.3845 25.0609 22.3845 25.1619 22.2013 25.1451C20.4359 24.9261 18.7204 24.4715 17.1215 23.6463C14.007 22.0466 12.0916 19.487 11.2089 16.1023C11.1923 16.035 11.1756 15.9339 11.2089 15.8666C11.9751 14.4184 12.3415 12.8691 12.3581 11.2357C12.3914 11.2189 12.4081 11.1852 12.4414 11.1684L12.4747 11.1515Z" fill="white"/>
<path d="M3.74739 14.379C3.31436 15.1873 2.91464 15.9619 2.49826 16.7365C2.43164 16.8544 2.39833 16.9891 2.34836 17.107C2.21512 17.4438 2.28174 17.6964 2.53157 17.7974C2.7814 17.8985 2.98126 17.7637 3.13115 17.4606C3.34767 16.9891 3.56419 16.5008 3.81401 16.0461C4.0805 15.5578 4.4136 15.0863 4.71339 14.6148C4.7467 14.6148 4.76335 14.6148 4.79666 14.6148C4.84663 14.8842 4.8966 15.1536 4.9299 15.4062C5.01318 15.8946 5.0798 16.3661 5.17973 16.8544C5.2297 17.1575 5.42956 17.2922 5.69604 17.2417C5.94587 17.1912 6.06245 16.9723 6.01249 16.686C5.86259 15.7767 5.71269 14.8674 5.54614 13.958C5.51283 13.7728 5.54614 13.6213 5.69604 13.4865C6.27897 12.9982 6.84524 12.493 7.42817 11.9878C7.49479 11.9205 7.59472 11.87 7.69465 11.8026C7.77793 12.4257 7.8612 12.9982 7.94448 13.5876C7.97779 13.857 8.0111 14.1264 8.06106 14.3959C8.11103 14.699 8.29424 14.8674 8.54406 14.8337C8.81054 14.8 8.96044 14.5979 8.91047 14.278C8.79389 13.3687 8.66065 12.4593 8.52741 11.55C8.4941 11.3479 8.52741 11.2469 8.71061 11.1459C9.14365 10.927 9.57668 10.6912 10.0097 10.4891C10.093 10.4555 10.2096 10.4218 10.2928 10.4386C10.6593 10.506 11.0257 10.5902 11.3921 10.6912C11.4587 10.6912 11.542 10.8091 11.542 10.8596C11.542 13.4192 10.8924 15.7093 8.8272 17.3933C7.97779 18.0837 6.96183 18.4036 5.92921 18.6731C4.4136 19.0604 2.86467 19.2456 1.31575 19.3635C1.28244 19.3635 1.24913 19.3635 1.16585 19.3635C1.08258 18.892 0.982646 18.4373 0.932681 17.949C0.69951 15.5073 1.28244 13.2676 2.71478 11.2806C3.68077 9.93343 4.9299 8.99043 6.56211 8.61996C7.46148 8.41789 8.37751 8.43473 9.27689 8.6368C9.42678 8.67048 9.4934 8.73784 9.51006 8.88939C9.54337 9.14198 9.59333 9.41141 9.6433 9.664C9.11034 9.95027 8.57737 10.2534 8.06106 10.5396C7.99444 10.5733 7.87786 10.5733 7.79458 10.5733C6.79528 10.5733 5.77931 10.5733 4.78001 10.5733C4.64677 10.5733 4.51353 10.607 4.39694 10.6744C4.23039 10.7754 4.19708 10.9606 4.2637 11.1459C4.33032 11.3479 4.49687 11.4321 4.69673 11.4321C5.26301 11.4321 5.82928 11.4321 6.39555 11.4321C6.47883 11.4321 6.5621 11.4321 6.69535 11.4321C6.34559 11.7352 6.02914 11.971 5.74601 12.2573C5.37959 12.6109 5.04649 12.9814 4.68008 13.335C4.5968 13.4192 4.48022 13.4697 4.36363 13.4865C3.84732 13.4865 3.33102 13.4865 2.81471 13.4865C2.4483 13.4865 2.23178 13.7728 2.36502 14.0928C2.4483 14.278 2.58154 14.3622 2.7814 14.3622C3.13115 14.3622 3.48091 14.3622 3.81401 14.3622L3.74739 14.379Z" fill="white"/>
<path d="M13.4241 6.87245C13.8238 6.5525 14.1902 6.24939 14.5733 5.96313C14.8731 5.72737 15.1895 5.5253 15.4893 5.30639C15.6392 5.20535 15.7558 5.18851 15.9223 5.25587C16.5885 5.54214 17.2547 5.81157 17.921 6.06416C18.0542 6.11468 18.2707 6.06416 18.404 5.9968C18.5039 5.92945 18.5538 5.71053 18.5205 5.6095C18.4706 5.47478 18.3373 5.34007 18.1874 5.27271C17.6711 5.03696 17.1548 4.85173 16.5885 4.61597C16.7051 4.54862 16.7718 4.48126 16.855 4.44758C17.6378 4.0266 18.4206 3.60561 19.2034 3.20147C19.4199 3.10043 19.5365 2.94888 19.5032 2.71312C19.4532 2.41002 19.1534 2.25846 18.837 2.42686C18.0375 2.831 17.2547 3.26882 16.4553 3.67297C16.3554 3.72349 16.2554 3.79085 16.1055 3.87504C16.1055 3.57193 16.1055 3.31934 16.1055 3.06675C16.1055 2.831 16.1055 2.59525 16.1055 2.3595C16.1055 2.05639 15.939 1.87116 15.6725 1.87116C15.4227 1.87116 15.2561 2.07323 15.2395 2.3595C15.2395 2.96572 15.2395 3.57193 15.2395 4.17815C15.2395 4.34654 15.1895 4.44758 15.0563 4.54862C14.4567 4.9696 13.8571 5.40743 13.2409 5.86209C13.2409 5.81157 13.2242 5.74421 13.2242 5.67686C13.2242 5.10432 13.2242 4.53178 13.2242 3.95924C13.2242 3.89188 13.2242 3.82452 13.2242 3.75717C13.2076 3.48774 13.0244 3.31934 12.7912 3.33618C12.5414 3.33618 12.3915 3.52142 12.3748 3.79085C12.3748 4.66649 12.3748 5.54214 12.3748 6.43463C12.3748 6.60302 12.3248 6.7209 12.2083 6.85561C11.642 7.42815 11.0924 8.01753 10.5261 8.59007C10.4595 8.65743 10.4095 8.72478 10.3096 8.84266C10.2763 8.52271 10.2263 8.27012 10.2096 8.00069C10.1097 6.83877 10.193 5.6937 10.6427 4.61597C11.2756 3.08359 12.4581 2.14059 13.957 1.56805C15.1729 1.09654 16.4553 0.961829 17.7377 0.911311C18.9203 0.860793 20.0861 0.961829 21.2686 1.1639C21.4185 1.19758 21.5185 1.21442 21.4851 1.41649C21.202 3.55509 20.6357 5.57582 19.3366 7.32711C17.871 9.29732 15.889 10.173 13.4907 10.1393C12.5747 10.1393 11.6753 9.98774 10.7593 9.76883C10.8092 9.70147 10.8259 9.63411 10.8758 9.60043C11.4255 8.99421 11.9751 8.37116 12.5247 7.76494C12.6246 7.64706 12.7246 7.63022 12.8745 7.68074C13.7572 7.98385 14.6399 8.28696 15.5393 8.57323C15.9057 8.69111 16.2221 8.45535 16.1555 8.10173C16.1222 7.89965 15.9557 7.79862 15.7724 7.73126C15.0729 7.49551 14.3568 7.25976 13.6572 7.02401C13.5906 7.00717 13.524 6.97349 13.4074 6.93981L13.4241 6.87245Z" fill="white"/>
</g>
<defs>
<clipPath id="clip0_124_2518">
<rect width="24" height="26" fill="white"/>
</clipPath>
</defs>
</svg>
