<svg width="57" height="48" viewBox="0 0 57 48" fill="none" xmlns="http://www.w3.org/2000/svg">
<path d="M14.5314 29.9261V31.5819C12.2608 31.4657 10.0387 31.5819 7.9108 31.1983C3.15946 30.3421 -0.290929 25.7368 0.0188248 21.0181C0.3609 15.8511 4.28534 11.8806 9.36799 11.5591C9.67235 11.5402 9.97672 11.5105 10.3053 11.4835C11.073 5.92478 13.8823 2.0245 19.3178 0.501117C24.4866 -0.946635 28.7478 0.811736 32.2736 4.88219C35.1018 3.0833 38.1212 2.53769 41.2968 3.96384C44.4186 5.36837 46.0805 7.90194 46.6461 11.1756C47.7262 11.3674 48.7605 11.4565 49.7383 11.7428C54.3038 13.0879 57.369 17.5068 56.965 22.0688C56.5205 27.0522 52.9274 30.8958 48.0198 31.3442C45.5822 31.5657 43.1096 31.382 40.5804 31.382V29.9315C42.7567 29.9315 44.8603 29.9585 46.964 29.9261C51.3328 29.8613 54.9421 26.6039 55.4054 22.3443C55.8741 18.0416 53.0971 14.1197 48.8494 13.0771C48.7632 13.0555 48.6716 12.9988 48.5908 13.0096C46.0751 13.3553 45.2374 12.2155 44.5748 9.74674C43.2766 4.9011 37.3751 3.18324 33.3133 6.15977C32.3005 6.90256 31.7672 6.98089 30.9645 5.86536C28.3922 2.2865 23.983 0.79553 19.738 1.91106C15.5954 2.99957 12.5032 6.62435 11.9888 10.9892C11.829 12.3397 11.0685 13.0375 9.70737 13.0825C5.15804 13.2311 1.5649 16.9234 1.54604 21.4665C1.52719 25.9691 5.12571 29.7371 9.66427 29.9126C11.2319 29.9748 12.8049 29.9234 14.5314 29.9234V29.9261Z" fill="black"/>
<path d="M37.6982 17.555C37.6982 21.0664 35.7023 23.2056 32.4243 23.1975C29.149 23.1921 27.137 21.0339 27.1505 17.5442C27.1639 14.0464 29.1921 11.872 32.4324 11.8829C35.6835 11.8937 37.6982 14.0626 37.6982 17.5577V17.555ZM29.4238 17.5388C29.4238 20.1939 31.1799 21.8415 33.3024 21.1825C34.6492 20.7638 35.4168 19.5079 35.4518 17.6631C35.4896 15.6886 34.8 14.4299 33.4156 13.9518C31.2069 13.1929 29.4238 14.7973 29.4238 17.5388Z" fill="black"/>
<path d="M23.6543 19.0321C24.3788 19.2698 24.9983 19.4723 25.6071 19.6722C24.966 22.2787 23.0671 23.5239 20.4463 23.1674C17.8525 22.8135 16.2283 20.6797 16.2256 17.6221C16.2256 14.3566 17.9198 12.2147 20.7426 11.9176C23.1883 11.661 25.0226 12.8359 25.5505 15.094C24.9202 15.2614 24.2873 15.4289 23.6758 15.591C22.5876 13.9784 21.7338 13.5355 20.4948 13.9001C19.2235 14.2729 18.5635 15.2938 18.5258 17.0711C18.5124 17.7842 18.5582 18.5108 18.6955 19.2076C18.9245 20.3772 19.6383 21.1443 20.8584 21.2847C22.1001 21.4279 22.9001 20.8012 23.3661 19.683C23.4334 19.521 23.5088 19.3616 23.657 19.0321H23.6543Z" fill="black"/>
<path d="M28.1956 44.5993C28.6831 43.97 29.1114 43.2785 29.6797 42.7356C29.9491 42.479 30.4824 42.4979 30.8945 42.3926C30.8999 42.7896 31.0669 43.3001 30.8837 43.5621C29.9356 44.9234 28.904 46.2253 27.8858 47.538C27.3633 48.2106 26.8515 48.1133 26.364 47.4705C25.389 46.1821 24.3654 44.9288 23.455 43.5972C23.2611 43.3163 23.4604 42.7653 23.4793 42.3385C23.859 42.4493 24.3466 42.4466 24.5917 42.6924C25.1546 43.2542 25.5991 43.9375 26.259 44.7857C26.3101 44.1887 26.3667 43.8214 26.3694 43.4568C26.3775 40.4019 26.3371 37.3443 26.4098 34.2922C26.4206 33.8222 26.9323 33.363 27.2125 32.8984C27.4495 33.3549 27.8858 33.8087 27.8939 34.2706C27.9532 37.6793 27.9262 41.0907 27.9262 44.5021C28.0178 44.5345 28.1094 44.5669 28.201 44.602L28.1956 44.5993Z" fill="black"/>
<path d="M15.4768 37.2531C15.4768 34.914 15.4768 33.0017 15.4768 31.0867C15.4768 29.6929 15.4499 28.2965 15.4903 26.9028C15.5091 26.2464 15.1751 25.2794 16.2606 25.2578C16.4842 25.2524 16.9151 26.2788 16.9286 26.8379C16.9959 29.7172 16.9609 32.5965 16.9582 35.4758C16.9582 35.9161 16.9582 36.3537 16.9582 36.7939C17.0417 36.8425 17.1252 36.8912 17.2087 36.9371C17.7124 36.305 18.1622 35.6136 18.744 35.0626C19.0214 34.8033 19.5521 34.8141 19.9669 34.7006C19.9669 35.1058 20.1231 35.6244 19.9345 35.8972C18.9837 37.2585 17.9548 38.5685 16.9286 39.8758C16.4599 40.4727 15.932 40.4241 15.4795 39.838C14.4613 38.5253 13.4243 37.2207 12.4762 35.8567C12.2958 35.5947 12.4843 35.0734 12.5032 34.6709C12.891 34.7682 13.3974 34.7411 13.6425 34.9842C14.2297 35.5596 14.693 36.2618 15.4741 37.2504L15.4768 37.2531Z" fill="black"/>
<path d="M38.14 38.9636C38.14 35.6927 38.14 32.4217 38.14 29.1508C38.14 28.7456 38.0889 28.3189 38.202 27.9461C38.2747 27.703 38.633 27.3573 38.8134 27.3843C39.0908 27.4275 39.4733 27.7084 39.5461 27.965C39.678 28.4269 39.6269 28.9455 39.6269 29.4398C39.6322 32.6189 39.6269 35.8007 39.8962 39.096C40.373 38.4828 40.7958 37.8157 41.3507 37.2809C41.6389 37 42.1561 36.9541 42.5682 36.8028C42.5762 37.2377 42.7621 37.7968 42.5628 38.0885C41.6524 39.4228 40.6369 40.6869 39.6484 41.9699C39.142 42.6289 38.6114 42.6127 38.1104 41.9618C37.1219 40.6788 36.1064 39.4174 35.1933 38.0831C34.9967 37.7941 35.1933 37.235 35.2068 36.8001C35.592 36.9216 36.0849 36.9351 36.3381 37.189C36.901 37.7509 37.3455 38.4342 37.8384 39.069C37.938 39.0338 38.0404 39.0014 38.14 38.9663V38.9636Z" fill="black"/>
<path d="M17.9011 31.4096V30.0078H37.2136V31.4096H17.9011Z" fill="black"/>
<path d="M40.9331 23.0928C41.426 23.8247 43.096 22.5228 42.9828 24.446C42.1021 24.446 41.3048 24.446 40.5075 24.446C40.0281 24.446 39.5459 24.446 39.0665 24.446C38.9749 24.3352 38.8833 24.2272 38.7917 24.1165C39.2874 23.4358 39.7614 22.7362 40.2893 22.0799C40.7068 21.5586 41.2805 21.1453 41.6092 20.5808C41.7708 20.2999 41.5364 19.7867 41.4826 19.3788C41.1028 19.4707 40.7095 19.5247 40.3486 19.6679C39.985 19.811 39.6537 20.0406 39.3062 20.2324C39.1688 20.0514 39.0315 19.8731 38.8941 19.6922C39.3897 19.2384 39.8476 18.474 40.389 18.4092C41.1243 18.32 42.1317 18.555 42.6246 19.0493C42.9775 19.4032 42.8913 20.516 42.6138 21.1048C42.2529 21.8692 41.5068 22.4472 40.9331 23.0955V23.0928Z" fill="black"/>
</svg>
