<svg width="42" height="48" viewBox="0 0 42 48" fill="none" xmlns="http://www.w3.org/2000/svg">
<path d="M20.882 47.9964C20.7681 47.8545 20.6717 47.6952 20.5403 47.5736C19.9766 47.061 19.3955 46.5658 18.8376 46.0504C17.6811 44.9818 16.5333 43.9045 15.333 42.7837C16.0398 42.1235 16.7203 41.4922 17.4621 40.8C18.0987 41.3705 18.7383 41.9439 19.4539 42.5839V33.8672H22.462V42.4623C22.5 42.4913 22.5379 42.5202 22.5759 42.5492C23.2184 41.9758 23.858 41.3995 24.5122 40.8116C25.2453 41.4777 25.9549 42.1235 26.6705 42.7722C25.7856 43.6004 24.9269 44.4113 24.0595 45.2163C23.271 45.9461 22.4708 46.6672 21.6822 47.3941C21.4719 47.5881 21.2763 47.7966 21.0718 47.9964C21.0076 47.9964 20.9462 47.9964 20.882 47.9964Z" fill="black"/>
<path d="M20.4935 0C23.6651 0.0463348 26.2381 0.567602 28.6709 1.74624C30.0582 2.421 31.3432 3.22606 32.4997 4.25122C33.4255 5.07077 34.2462 5.96561 34.988 6.95891C36.3782 8.821 37.1842 10.8916 37.6223 13.1562C37.8822 14.4912 37.9874 15.8205 37.7771 17.141C37.5289 18.7048 37.2426 20.2889 36.4833 21.7021C35.87 22.8431 35.172 23.9609 34.3542 24.9658C32.8327 26.8366 30.9314 28.2585 28.7293 29.2952C26.9945 30.1119 25.1867 30.6418 23.2913 30.888C20.695 31.221 18.1454 31.0067 15.6483 30.2335C13.1571 29.4632 10.9112 28.2527 9.05086 26.4195C8.2594 25.6376 7.48546 24.8094 6.85171 23.9001C6.21795 22.9908 5.70394 21.983 5.2571 20.9665C3.76764 17.5754 3.84941 14.109 5.0001 10.6599C5.52871 9.06715 6.38734 7.59602 7.46794 6.30443C10.1869 3.04652 13.6624 1.01647 17.8796 0.301176C18.8989 0.127421 19.9386 0.0637104 20.4935 0ZM20.2452 28.2179C22.4765 28.2382 23.9952 28.0036 25.4729 27.5432C27.821 26.8076 29.8537 25.5363 31.5243 23.7553C32.6574 22.5477 33.5774 21.149 34.0914 19.5736C35.3589 15.6843 34.915 12.0094 32.5143 8.6067C31.4805 7.14136 30.2013 5.96851 28.6914 5.01575C26.758 3.79656 24.6523 3.08706 22.3772 2.90462C17.3889 2.50498 13.2214 4.16145 9.95622 7.92905C8.72668 9.34516 7.93814 11.0422 7.51174 12.8492C7.01818 14.9372 7.05906 17.0281 7.77751 19.1015C8.34701 20.7435 9.14724 22.2089 10.3008 23.512C11.4019 24.7573 12.6811 25.7477 14.1442 26.5296C16.2645 27.6619 18.5338 28.1803 20.2511 28.2121L20.2452 28.2179Z" fill="black"/>
<path d="M34.7369 28.2422H37.8764V37.5352C38.554 36.9184 39.1585 36.3711 39.8215 35.7687C40.537 36.4145 41.2555 37.0632 41.9973 37.7321C41.3957 38.3026 40.8408 38.8442 40.2654 39.3683C39.7397 39.8491 39.1848 40.3037 38.6591 40.7873C37.9699 41.4216 37.2865 42.0616 36.6235 42.7218C36.3841 42.9593 36.2439 42.9303 36.0102 42.7102C34.5354 41.3202 33.0488 39.9446 31.5623 38.5691C31.2702 38.2968 30.9577 38.0449 30.6335 37.7669C31.3053 37.1298 31.9273 36.539 32.5494 35.9511C32.7276 35.7832 32.8794 35.789 33.0693 35.9743C33.592 36.4869 34.1382 36.9763 34.7398 37.5323V28.2422H34.7369Z" fill="black"/>
<path d="M4.14738 28.25H7.19349V37.5604C7.90609 36.9233 8.53985 36.3615 9.19696 35.7736C9.90665 36.4281 10.5901 37.0594 11.3465 37.7573C9.45105 39.5007 7.58776 41.2122 5.67774 42.9671C3.78524 41.2295 1.89858 39.4978 0.000244141 37.7573C0.715772 37.1 1.42254 36.4513 2.16143 35.7707C2.80686 36.3557 3.43478 36.9262 4.1503 37.5749V28.25H4.14738Z" fill="black"/>
<path d="M22.494 22.3823V25.3766H19.4654C19.4654 24.5687 19.4362 23.7462 19.4771 22.9267C19.5005 22.4749 19.3282 22.2983 18.9251 22.1245C17.4444 21.4816 16.4222 20.1292 16.4836 18.409H19.4391C19.5297 18.9882 19.7925 19.469 20.4175 19.6775C21.0191 19.8773 21.577 19.8309 22.0442 19.3908C22.4648 18.994 22.6079 18.4959 22.4035 17.9341C22.1815 17.3202 21.7142 17.0682 21.0805 16.9698C20.3591 16.8597 19.6056 16.7699 18.9426 16.4948C16.209 15.3596 15.6775 12.0032 17.5233 9.99347C17.938 9.54171 18.5513 9.25212 19.1062 8.94515C19.3544 8.80614 19.4859 8.70479 19.4771 8.40071C19.4537 7.49719 19.4683 6.59366 19.4683 5.66406H22.4823V8.73954C24.477 9.53302 25.727 11.1605 25.5605 12.7359H22.529C22.4852 12.5853 22.4473 12.4232 22.3918 12.2668C22.0647 11.3835 20.9636 11.1287 20.178 11.5804C19.5238 11.9569 19.2522 12.788 19.6728 13.4686C20.0028 14.0043 20.5402 14.1347 21.1272 14.1694C22.5904 14.2534 23.8228 14.7833 24.7428 15.9649C25.5693 17.0277 25.8351 18.2063 25.4408 19.4747C24.994 20.9198 23.963 21.8465 22.494 22.3794V22.3823Z" fill="black"/>
</svg>
