<svg width="19" height="27" viewBox="0 0 19 27" fill="none" xmlns="http://www.w3.org/2000/svg">
<g clip-path="url(#clip0_136_300)">
<path d="M8.7808 26.9977C8.24862 26.8497 7.73692 26.6806 7.30708 26.3211C6.54976 25.6868 6.16086 24.8834 6.1404 23.8896C6.1404 23.7205 6.09946 23.6359 5.93571 23.5725C4.76902 23.0016 4.15498 22.0502 4.09357 20.7393C4.09357 20.5701 4.05264 20.4856 3.88889 20.401C2.7222 19.8513 2.10815 18.8998 2.04675 17.5678C2.04675 17.3986 2.00581 17.3141 1.84207 17.2295C0.716315 16.7432 -0.0205407 15.5803 -7.2471e-05 14.3117C0.040864 12.9586 0.654911 12.0071 1.84207 11.4362C1.94441 11.3728 2.02628 11.3517 2.04675 11.1825C2.08769 9.61791 2.94735 8.51846 4.4006 8.09559C4.4006 8.09559 4.42106 8.09559 4.462 8.0533C4.4006 8.01102 4.35966 7.94759 4.29826 7.9053C2.84501 6.74242 2.08769 5.19896 2.04675 3.29606C2.04675 2.93663 2.04675 2.57719 2.04675 2.21775C2.04675 1.92175 2.23096 1.68917 2.49705 1.68917C3.49999 1.66803 4.48247 1.64688 5.44448 2.00632C6.54976 2.42919 7.45036 3.12692 8.14628 4.12065C8.16675 4.16294 8.20769 4.20522 8.22816 4.24751C8.22816 4.24751 8.24862 4.24751 8.26909 4.24751C8.49424 3.61321 8.71939 2.97891 8.98548 2.34461C9.25157 1.68917 9.57906 1.07601 10.0498 0.547432C10.7253 -0.213727 11.8101 -0.213727 12.4241 0.547432C12.8744 1.1183 12.9358 1.94289 12.4651 2.49262C11.7282 3.33835 11.3598 4.37437 11.1346 5.43154C10.9504 6.27727 10.8686 7.16529 10.7457 8.03216C10.7048 8.28588 10.7457 8.47617 11.0118 8.58189C11.0937 8.62417 11.1551 8.6876 11.2575 8.77218C11.3189 8.72989 11.4007 8.66646 11.4621 8.60303C12.4651 7.88416 13.5499 7.73616 14.6347 8.30702C15.7195 8.85675 16.2926 9.8082 16.354 11.0557C16.354 11.2248 16.395 11.3094 16.5792 11.3939C17.7664 11.9648 18.4009 12.9374 18.4009 14.2906C18.4009 15.6226 17.7663 16.5952 16.5997 17.1661C16.4359 17.2506 16.3745 17.3352 16.3745 17.5255C16.3131 18.8364 15.6991 19.7878 14.5528 20.3376C14.4096 20.401 14.3482 20.4644 14.3482 20.6336C14.3072 21.9867 13.6727 22.9382 12.4855 23.5091C12.3627 23.5725 12.3013 23.6148 12.3013 23.7628C12.2604 25.3697 11.2779 26.5537 9.7428 26.8708C9.70187 26.8708 9.6814 26.892 9.66093 26.9131H8.8422L8.7808 26.9977ZM5.09652 14.3329C5.09652 15.4957 6.01759 16.4472 7.14334 16.4472C8.26909 16.4472 9.16969 15.4957 9.16969 14.354C9.16969 13.1911 8.26909 12.2397 7.14334 12.2397C6.01759 12.2397 5.09652 13.1911 5.09652 14.354V14.3329ZM8.14628 7.22872C7.98254 4.45894 5.66963 2.47147 3.07016 2.76748C2.78361 6.0024 5.40354 8.01102 7.36849 7.96873C7.30708 7.9053 7.24568 7.84187 7.18428 7.77844C6.71351 7.29215 6.24274 6.80585 5.7515 6.29841C5.44448 5.98126 5.40354 5.68525 5.64916 5.45268C5.87431 5.19896 6.18133 5.24125 6.48836 5.5584C6.95913 6.04469 7.42989 6.53099 7.92113 7.03843C7.98254 7.10186 8.04394 7.14414 8.12581 7.24986L8.14628 7.22872ZM1.00287 14.3329C1.04381 15.1786 1.39177 15.834 2.12862 16.2146C2.86548 16.5952 3.58187 16.5318 4.27779 16.0455C4.42106 15.9398 4.462 15.8552 4.38013 15.686C3.99123 14.798 3.99123 13.91 4.38013 13.022C4.44153 12.874 4.44153 12.7683 4.29826 12.6837C3.6228 12.1974 2.90642 12.1128 2.14909 12.4723C1.41224 12.8528 1.04381 13.5083 1.00287 14.354V14.3329ZM11.0937 16.4472C12.1171 16.4472 12.8949 15.8552 13.161 14.9883C13.4271 14.1003 13.1201 13.1488 12.3832 12.6203C11.6668 12.0917 10.6843 12.1128 9.98842 12.6625C9.88608 12.7471 9.82468 12.8105 9.88608 12.9586C10.3159 13.8677 10.2954 14.798 9.88608 15.7283C9.86561 15.7918 9.88608 15.9398 9.94749 15.982C10.3159 16.2992 10.7457 16.4472 11.0732 16.4472H11.0937ZM15.1874 12.2185C14.8394 12.2185 14.43 12.3665 14.0616 12.6414C13.9183 12.7471 13.9183 12.8317 13.9797 12.9797C14.3686 13.8677 14.3891 14.7557 13.9797 15.6438C13.8979 15.8129 13.9388 15.8975 14.0821 16.0032C14.7985 16.5529 15.7605 16.5529 16.4973 16.0032C17.2137 15.4746 17.5207 14.5232 17.2546 13.6351C16.9886 12.7683 16.2108 12.1763 15.2078 12.1763L15.1874 12.2185ZM11.2165 11.1614C11.1756 10.3791 10.8686 9.76591 10.2136 9.36419C9.47672 8.92018 8.73986 8.94132 8.02347 9.42762C7.42989 9.82934 7.14334 10.4214 7.12287 11.1614C7.92113 11.1614 8.57612 11.4574 9.16969 11.9648C9.76327 11.4362 10.4387 11.1825 11.2165 11.1614ZM7.14334 17.5044C7.18428 18.3078 7.4913 18.8998 8.14628 19.3015C8.88314 19.7456 9.61999 19.7244 10.3364 19.2381C10.93 18.8364 11.2165 18.2444 11.237 17.5044C10.4387 17.4832 9.76327 17.2084 9.19016 16.7009C8.59658 17.2295 7.92113 17.4832 7.14334 17.5044ZM13.2429 20.6759C12.4855 20.6547 11.8101 20.401 11.2165 19.8724C10.6229 20.401 9.94749 20.6547 9.19016 20.6759C9.14922 21.8176 10.1317 22.7902 11.2779 22.769C12.3627 22.7479 13.3247 21.733 13.2429 20.6759ZM11.2165 23.8262C10.4387 23.8051 9.76327 23.5302 9.19016 23.0228C8.59658 23.5513 7.92113 23.8051 7.18428 23.8262C7.08193 24.8622 8.04394 25.8983 9.10829 25.9194C10.2545 25.9617 11.2575 24.9891 11.2165 23.8262ZM13.3043 16.7221C12.9768 16.9124 12.7107 17.0815 12.4037 17.2506C12.2809 17.3141 12.2604 17.3986 12.2399 17.5255C12.1581 17.9695 12.0762 18.4135 11.9534 18.8364C11.892 19.0055 11.9329 19.0901 12.0557 19.1747C12.7926 19.7456 13.8569 19.7456 14.5733 19.1113C15.0441 18.6884 15.2897 18.1598 15.3102 17.5044C14.5324 17.4832 13.8569 17.2295 13.3043 16.7221ZM5.05558 11.9437C5.38307 11.7534 5.69009 11.5842 5.99712 11.3939C6.05852 11.3517 6.11993 11.2459 6.11993 11.1825C6.11993 10.6962 6.22227 10.2311 6.42695 9.8082C6.48836 9.6602 6.46789 9.59677 6.34508 9.51219C5.83337 9.11047 5.26026 8.98361 4.62575 9.13161C3.49999 9.40648 2.98829 10.5059 3.07016 11.1825C3.82749 11.2037 4.48247 11.4574 5.05558 11.9648V11.9437ZM15.2692 11.1614C15.2692 11.1614 15.2897 11.1402 15.2897 11.1191C15.3306 10.3791 14.8189 9.59677 14.123 9.25847C13.4066 8.92018 12.4855 9.0259 11.9738 9.53334C11.9329 9.57562 11.9124 9.70248 11.9329 9.76591C12.1376 10.2311 12.2399 10.6962 12.2399 11.1825C12.2399 11.2459 12.2604 11.3305 12.3218 11.3517C12.6493 11.542 12.9768 11.7322 13.3043 11.9225C13.8569 11.4151 14.5324 11.1825 15.2692 11.1402V11.1614ZM3.09063 17.5044C3.09063 17.5044 3.07016 17.5467 3.07016 17.5678C3.1111 18.4347 3.49999 19.0478 4.25732 19.4073C5.01464 19.7667 5.73103 19.6398 6.38601 19.1324C6.42695 19.0901 6.44742 18.9633 6.42695 18.8998C6.22227 18.4347 6.11993 17.9695 6.11993 17.4832C6.11993 17.4198 6.07899 17.3352 6.01759 17.2929C5.71056 17.1026 5.38307 16.9335 5.05558 16.7432C4.50294 17.2506 3.82749 17.5044 3.09063 17.5255V17.5044ZM5.07605 20.6759C5.09652 20.8661 5.11698 21.0142 5.13745 21.141C5.44448 22.621 7.22521 23.2765 8.37143 22.325C8.45331 22.2616 8.53518 22.1982 8.47377 22.0502C8.24862 21.6062 8.14628 21.1199 8.14628 20.6336C8.14628 20.5701 8.10535 20.4856 8.06441 20.4433C7.75739 20.253 7.42989 20.0838 7.1024 19.8936C6.54976 20.3799 5.87431 20.6336 5.07605 20.6759ZM9.64046 8.0533C9.76327 7.24986 9.84514 6.44641 10.0089 5.68526C10.2954 4.33208 10.6639 3.00006 11.6054 1.92175C11.7896 1.71031 11.7692 1.39316 11.5645 1.20287C11.3598 1.01258 11.0528 0.991441 10.8481 1.22402C10.6229 1.47774 10.4183 1.7526 10.2545 2.04861C9.78374 2.89434 9.47672 3.82464 9.21063 4.75495C9.06735 5.32582 8.86267 5.87554 9.06735 6.46756C9.10829 6.57327 9.10829 6.70013 9.10829 6.80585C9.12876 7.20757 9.14923 7.6093 9.16969 8.01102C9.33344 8.01102 9.47672 8.03216 9.61999 8.0533H9.64046Z" fill="black"/>
<path d="M5.09668 14.3331C5.09668 13.1702 6.01775 12.2188 7.1435 12.2188C8.26926 12.2188 9.19033 13.1702 9.16986 14.3331C9.16986 15.4748 8.24879 16.4263 7.1435 16.4263C6.01775 16.4263 5.09668 15.4748 5.09668 14.3119V14.3331Z" fill="white"/>
<path d="M8.14638 7.23033C8.14638 7.23033 7.98264 7.08233 7.9417 7.0189C7.47093 6.5326 7.00016 6.04631 6.50892 5.53887C6.2019 5.22172 5.89488 5.17943 5.66973 5.43315C5.44457 5.68687 5.48551 5.96173 5.77207 6.27888C6.24284 6.76518 6.7136 7.25148 7.20484 7.75891C7.26625 7.82234 7.32765 7.88577 7.38906 7.9492C5.42411 7.99149 2.80417 5.98288 3.09073 2.74795C5.66972 2.45194 8.0031 4.43942 8.16685 7.20919L8.14638 7.23033ZM5.09661 4.31256C5.09661 4.03769 4.87146 3.80512 4.60538 3.78397C4.31882 3.78397 4.09367 4.01655 4.09367 4.31256C4.09367 4.58742 4.31882 4.81999 4.58491 4.84114C4.87146 4.84114 5.09661 4.60856 5.09661 4.31256Z" fill="white"/>
<path d="M1.00293 14.3385C1.04387 13.4927 1.39183 12.8373 2.14915 12.4567C2.88601 12.0761 3.60239 12.1819 4.29831 12.6682C4.44159 12.7739 4.44159 12.8584 4.38019 13.0064C3.99129 13.8945 3.99129 14.7825 4.38019 15.6705C4.46206 15.8397 4.42112 15.9242 4.27785 16.0299C3.60239 16.5162 2.86554 16.6008 2.12868 16.1991C1.39183 15.8185 1.04387 15.1631 1.00293 14.3173V14.3385Z" fill="white"/>
<path d="M11.0939 16.4527C10.7459 16.4527 10.3161 16.3047 9.96811 15.9875C9.90671 15.9453 9.88624 15.7973 9.90671 15.7338C10.3161 14.8035 10.3161 13.8732 9.90671 12.9641C9.82484 12.7949 9.90671 12.7526 10.009 12.668C10.705 12.1183 11.6874 12.0972 12.4038 12.6258C13.1407 13.1543 13.4477 14.1058 13.1816 14.9938C12.9155 15.8607 12.1173 16.4527 11.1143 16.4527H11.0939Z" fill="white"/>
<path d="M15.1874 12.2188C16.1903 12.2188 16.9681 12.8108 17.2342 13.6776C17.5003 14.5445 17.1932 15.496 16.4769 16.0457C15.7605 16.5743 14.778 16.5743 14.0616 16.0457C13.9183 15.94 13.8979 15.8554 13.9593 15.6863C14.3482 14.7982 14.3482 13.9102 13.9593 13.0222C13.8774 12.853 13.8979 12.7685 14.0411 12.6839C14.4096 12.409 14.8189 12.261 15.1669 12.261L15.1874 12.2188Z" fill="white"/>
<path d="M11.2167 11.1619C10.4389 11.2042 9.76345 11.4368 9.16987 11.9654C8.59676 11.4579 7.92131 11.1831 7.12305 11.1619C7.14352 10.4219 7.43007 9.8299 8.02365 9.42818C8.74004 8.94188 9.47689 8.92074 10.2137 9.36475C10.8687 9.76647 11.1758 10.3585 11.2167 11.1619Z" fill="white"/>
<path d="M7.14331 17.5066C7.9211 17.4854 8.59655 17.2317 9.19013 16.7031C9.76324 17.2106 10.4387 17.4854 11.237 17.5066C11.2165 18.2466 10.9299 18.8386 10.3364 19.2403C9.61997 19.7266 8.88311 19.7478 8.14625 19.3038C7.49127 18.902 7.18425 18.31 7.14331 17.5066Z" fill="white"/>
<path d="M13.2429 20.6784C13.3248 21.7356 12.3832 22.7505 11.278 22.7716C10.1317 22.7928 9.14926 21.8202 9.1902 20.6784C9.94752 20.6573 10.623 20.4036 11.2166 19.875C11.8101 20.4036 12.4856 20.6573 13.2429 20.6784Z" fill="white"/>
<path d="M11.2166 23.8269C11.2576 24.9898 10.2546 25.9624 9.10841 25.9201C8.02359 25.8778 7.08205 24.8629 7.18439 23.8269C7.94172 23.8057 8.5967 23.552 9.19028 23.0234C9.76339 23.5309 10.4388 23.8057 11.2166 23.8269Z" fill="white"/>
<path d="M13.3044 16.7266C13.857 17.234 14.5325 17.4877 15.3103 17.5089C15.3103 18.1643 15.0442 18.714 14.5734 19.1158C13.857 19.7501 12.7927 19.7501 12.0558 19.1792C11.933 19.0735 11.9125 19.01 11.9535 18.8409C12.0763 18.418 12.1786 17.974 12.24 17.53C12.2605 17.4031 12.281 17.3186 12.4038 17.2551C12.6903 17.1071 12.9769 16.9169 13.3044 16.7266Z" fill="white"/>
<path d="M5.05565 11.9444C4.50301 11.437 3.82756 11.1833 3.07023 11.1621C2.98836 10.4855 3.50006 9.38608 4.62582 9.11122C5.26033 8.96322 5.81297 9.11122 6.34515 9.4918C6.44749 9.57637 6.48843 9.66095 6.42702 9.78781C6.22234 10.2107 6.12 10.6758 6.12 11.1621C6.12 11.2467 6.05859 11.3524 5.99719 11.3736C5.71063 11.5638 5.40361 11.733 5.05565 11.9233V11.9444Z" fill="white"/>
<path d="M15.2694 11.1634C14.5325 11.1845 13.8571 11.4383 13.3045 11.9457C12.9565 11.7554 12.629 11.5651 12.322 11.3748C12.281 11.3537 12.2401 11.2691 12.2401 11.2057C12.2401 10.6983 12.1378 10.2331 11.9331 9.78909C11.9126 9.72566 11.9331 9.5988 11.974 9.55651C12.4857 9.04908 13.4273 8.94336 14.1232 9.28165C14.8191 9.61994 15.3308 10.4234 15.2899 11.1423C15.2899 11.1423 15.2899 11.1423 15.2694 11.1845V11.1634Z" fill="white"/>
<path d="M3.09078 17.5089C3.82764 17.4877 4.50309 17.234 5.05573 16.7266C5.38322 16.9169 5.71071 17.086 6.01774 17.2763C6.05867 17.2974 6.12008 17.4031 6.12008 17.4666C6.12008 17.974 6.22242 18.4392 6.4271 18.8832C6.44757 18.9466 6.4271 19.0735 6.38617 19.1158C5.73118 19.6443 5.01479 19.7501 4.25747 19.3906C3.50015 19.0312 3.11125 18.3969 3.07031 17.5512C3.07031 17.5512 3.07031 17.53 3.09078 17.4877V17.5089Z" fill="white"/>
<path d="M5.07617 20.6807C5.87443 20.6596 6.54988 20.4059 7.10253 19.8984C7.43002 20.0887 7.75751 20.2579 8.06453 20.4482C8.10547 20.4693 8.14641 20.575 8.14641 20.6385C8.14641 21.1459 8.24875 21.611 8.4739 22.0551C8.55577 22.2031 8.4739 22.2665 8.37156 22.3299C7.22534 23.2602 5.4446 22.6259 5.13758 21.1459C5.11711 20.9979 5.09664 20.8499 5.07617 20.6807Z" fill="white"/>
<path d="M9.64051 8.05312C9.49723 8.05312 9.35395 8.03198 9.19021 8.01083C9.16974 7.60911 9.14927 7.20739 9.1288 6.80567C9.1288 6.69995 9.1288 6.57309 9.08787 6.46737C8.88318 5.87536 9.08787 5.30449 9.23114 4.75477C9.49723 3.82446 9.80425 2.89415 10.275 2.04842C10.4388 1.75242 10.6435 1.47755 10.8686 1.22383C11.0733 0.991258 11.3598 1.0124 11.585 1.20269C11.7897 1.39298 11.8101 1.68899 11.6259 1.92156C10.6844 2.99987 10.2955 4.31076 10.0294 5.68507C9.86566 6.46737 9.78379 7.24968 9.66098 8.05312H9.64051Z" fill="white"/>
<path d="M5.09669 4.30983C5.09669 4.60584 4.85107 4.83842 4.58499 4.83842C4.3189 4.83842 4.09375 4.5847 4.09375 4.30983C4.09375 4.01383 4.33937 3.78125 4.60546 3.78125C4.87154 3.78125 5.09669 4.03497 5.09669 4.30983Z" fill="black"/>
</g>
<defs>
<clipPath id="clip0_136_300">
<rect width="18.36" height="27" fill="white"/>
</clipPath>
</defs>
</svg>
