<svg width="37" height="48" viewBox="0 0 37 48" fill="none" xmlns="http://www.w3.org/2000/svg">
<path d="M37 11.7883C36.8201 12.4696 36.6107 13.141 36.0774 13.6355C35.7895 13.9041 35.4689 14.1563 35.1221 14.3397C33.4241 15.2306 33.002 17.0647 34.1635 18.6008C34.6738 19.2755 34.615 19.4687 33.8625 19.8584C32.9497 20.3301 32.1808 20.9327 32.2266 22.1052C32.2692 23.2581 33.4044 24.185 34.5234 24.0049C35.5016 23.8477 35.6979 24.054 35.5147 25.0497C34.7851 29.0159 32.9922 32.4516 30.2244 35.3535C27.3781 38.3405 24.0082 40.5283 19.9481 41.4519C18.3286 41.8187 16.6437 41.8875 14.9916 42.107C11.8409 42.5262 8.69034 42.9487 5.53973 43.3908C5.36306 43.417 5.14713 43.6005 5.06207 43.7675C4.6662 44.547 4.32267 45.3527 3.93335 46.1387C3.50476 47.0067 2.62141 47.4325 1.66609 47.2752C0.812184 47.1344 0.0891469 46.4532 0.00735548 45.5361C-0.0319044 45.0743 0.0891469 44.547 0.295261 44.1278C0.671502 43.3581 1.17207 42.6506 1.59411 41.9039C1.71189 41.6943 1.81331 41.429 1.8035 41.1932C1.72498 39.4278 1.63337 37.6625 1.51886 35.8972C1.27676 32.1667 1.68899 28.5181 2.86679 24.9645C2.99111 24.5879 3.22012 24.3979 3.61927 24.5027C3.96279 24.5944 4.09366 24.9121 3.94643 25.3608C2.97475 28.3281 2.53308 31.3741 2.62795 34.4888C2.6803 36.1756 2.85697 37.8557 2.98456 39.6833C3.15796 39.4377 3.26266 39.2968 3.35753 39.1494C6.03375 35.0849 8.88991 31.1547 12.2957 27.6666C14.3536 25.5573 16.5161 23.5529 18.5707 21.4404C21.0834 18.8595 23.4226 16.1214 25.5525 13.2098C25.8502 12.8036 26.1741 12.7119 26.4718 12.9379C26.7663 13.1606 26.7728 13.4914 26.4718 13.9041C24.0442 17.2121 21.3484 20.2908 18.4693 23.209C16.6012 25.1021 14.6382 26.9034 12.7963 28.8194C9.39374 32.3567 6.5474 36.3328 3.89081 40.4464C2.99438 41.8384 2.15356 43.2664 1.28657 44.678C1.06737 45.035 1.0412 45.3985 1.28657 45.7555C1.51886 46.0962 1.88856 46.2567 2.2419 46.1125C2.53308 45.9946 2.8537 45.7326 2.97475 45.4542C4.15255 42.762 5.62152 40.2303 7.22791 37.7771C7.52563 37.3251 7.82989 36.8764 8.13743 36.431C8.42861 36.0085 8.73941 35.9103 9.04695 36.1297C9.35448 36.3491 9.35776 36.6505 9.07639 37.0959C8.10471 38.6287 7.13303 40.1615 6.16462 41.6976C6.08937 41.8155 6.03702 41.9465 5.95523 42.1135C7.03488 41.9465 8.06545 41.7565 9.10257 41.6321C11.5988 41.3373 14.0918 40.9803 16.5947 40.8165C20.6581 40.5512 24.1686 39.0021 27.2963 36.49C30.9343 33.5685 33.2998 29.8315 34.3238 25.2167C32.6062 25.0759 31.4545 24.2145 31.1241 22.5245C30.81 20.9163 31.677 19.8224 32.9006 19.0527C32.7272 18.2732 32.4917 17.5461 32.4164 16.8027C32.2725 15.3747 32.8973 14.2185 34.1406 13.5962C35.5605 12.8888 35.976 11.8768 35.7633 10.3734C35.338 7.36679 34.4416 4.54355 32.7959 1.97906C32.6945 1.82185 32.5833 1.67447 32.4557 1.49433C30.9245 3.01076 29.0989 3.99987 27.1719 4.86453C27.7608 5.93224 27.8066 6.98686 27.1916 8.02183C26.7008 8.84718 25.9647 9.35157 25.0126 9.4924C24.7182 9.53498 24.62 9.65289 24.5841 9.9411C24.4826 10.8058 24.0998 11.5492 23.5044 12.1813C23.2427 12.4597 22.945 12.5842 22.6309 12.3025C22.3233 12.0241 22.379 11.7064 22.644 11.4215C23.2623 10.7566 23.5306 9.97058 23.4913 9.06335C23.4684 8.52621 23.7171 8.3428 24.3256 8.38538C25.7291 8.48363 26.8022 7.23578 26.3867 5.9519C26.2984 5.68005 26.1021 5.41804 25.896 5.2117C25.3823 4.70404 25.4576 4.34704 26.1217 4.02935C27.2832 3.47584 28.4741 2.96163 29.5602 2.28693C30.4142 1.75635 31.1568 1.0358 31.8995 0.344733C32.3771 -0.0974209 32.6716 -0.143274 33.0707 0.377485C34.5659 2.32296 35.5932 4.50753 36.2115 6.86895C36.5289 8.08078 36.6859 9.33519 36.9182 10.5699C36.9411 10.6911 36.9738 10.8123 37 10.9302V11.7916V11.7883Z" fill="black"/>
<path d="M15.0209 8.14341C16.202 8.14341 17.3209 8.22529 18.1355 9.2013C18.9436 10.174 18.8324 11.2647 18.5641 12.4241C18.9567 12.5224 19.3461 12.5846 19.7092 12.7156C20.2458 12.9088 20.7725 13.1348 21.2894 13.3706C21.6297 13.5246 21.8227 13.7866 21.646 14.1796C21.4955 14.5137 21.152 14.5956 20.7496 14.3761C19.9873 13.9602 19.1825 13.7014 18.3744 13.613C17.8215 14.851 17.2882 16.0498 16.7287 17.3107C16.9937 17.3402 17.298 17.3959 17.6055 17.409C17.9818 17.4254 18.2141 17.5989 18.2468 17.9756C18.273 18.3097 17.9687 18.611 17.5794 18.5488C16.9447 18.4505 16.2936 18.3359 15.7014 18.1001C15.1289 17.8741 15.0929 17.5072 15.4266 16.9898C15.7276 16.5247 16.0122 16.0498 16.3329 15.529C13.4571 14.5956 11.9128 12.6468 11.6577 9.65983C10.0218 9.99391 8.54304 10.6293 7.21147 11.5922C4.78063 13.3543 3.23641 15.6764 2.81109 18.6896C2.74566 19.1481 2.50356 19.3872 2.15676 19.3414C1.79034 19.2922 1.61039 18.9876 1.67583 18.4996C2.06515 15.6797 3.39018 13.3608 5.49713 11.4841C7.70222 9.519 10.3228 8.52006 13.2346 8.24822C13.6468 8.20891 13.9413 8.14341 13.9053 7.63248C13.8464 6.79402 13.83 5.95557 13.7515 5.12039C13.7057 4.65531 13.8039 4.36054 14.167 4.30159C14.5793 4.23281 14.8214 4.45225 14.8606 4.83872C14.9489 5.75251 15.0111 6.66956 15.07 7.58662C15.0798 7.75366 15.0373 7.92725 15.0144 8.14341H15.0209ZM16.804 14.3696C17.2293 13.2658 17.5499 12.1228 17.6088 10.9241C17.6415 10.2428 17.1573 9.57468 16.4899 9.43384C15.2859 9.17838 14.0689 9.27991 12.8682 9.44367C12.7079 11.733 14.6447 14.1534 16.804 14.3696Z" fill="black"/>
<path d="M3.36408 21.6682C4.88867 22.1595 6.36746 22.1661 7.85279 21.891C10.1135 21.4717 12.083 20.463 13.7745 18.9007C13.8563 18.8254 13.9348 18.7468 14.0199 18.6747C14.2947 18.4454 14.5826 18.4389 14.8247 18.7042C15.0701 18.9695 15.0439 19.2773 14.7887 19.5132C14.3438 19.9226 13.8759 20.3025 13.4113 20.6922C13.2772 20.8036 13.1332 20.9018 12.9075 21.0656C13.1562 21.4816 13.3819 21.9139 13.6567 22.3036C13.9217 22.6803 13.9675 23.0045 13.6829 23.224C13.3492 23.4827 13.0318 23.3845 12.8094 23.0799C12.4822 22.6344 12.1976 22.1595 11.9456 21.7731C10.5519 22.248 9.1451 22.7261 7.5976 23.2534C7.66304 23.6596 7.73174 24.2 7.83316 24.7306C7.89532 25.0483 7.9215 25.3398 7.60415 25.533C7.27698 25.7328 6.86148 25.5625 6.75351 25.1334C6.59975 24.521 6.50814 23.8921 6.40017 23.3288C5.40886 23.1814 4.40773 23.0471 3.41315 22.8801C3.10234 22.8277 2.80462 22.7032 2.5069 22.5886C1.92127 22.3659 1.81658 22.0776 2.12739 21.5176C3.22994 19.5263 4.61385 17.7445 6.22678 16.143C7.40457 14.9704 8.69034 13.9355 10.1201 13.0806C10.2411 13.0086 10.3785 12.8677 10.4897 12.8841C10.7319 12.9136 11.0721 12.9595 11.1703 13.1199C11.2684 13.2772 11.1768 13.6243 11.059 13.8241C10.9576 13.9944 10.7024 14.073 10.5127 14.1942C7.5289 16.0742 5.23874 18.6157 3.3608 21.665L3.36408 21.6682Z" fill="black"/>
<path d="M23.6221 35.348C22.0157 35.3381 20.73 34.1263 20.5729 32.5018C20.5533 32.2889 20.4453 32.0531 20.3014 31.8926C19.562 31.0607 19.418 29.9242 19.9579 28.9646C20.4944 28.0115 21.5577 27.5366 22.6373 27.756C23.0201 27.8346 23.3048 27.9951 23.2557 28.4471C23.2164 28.8106 22.9285 28.9679 22.4607 28.9023C21.6984 28.7943 21.1422 29.0661 20.8903 29.672C20.6384 30.2812 20.8412 30.8314 21.4301 31.3489C21.6035 31.4996 21.7409 31.8009 21.7311 32.0269C21.6918 32.8719 21.9732 33.54 22.7126 33.956C23.4127 34.349 24.1325 34.3064 24.777 33.8217C25.451 33.3108 25.68 32.6132 25.4739 31.7878C25.379 31.4013 25.4248 31.0771 25.8501 30.9395C26.1871 30.8314 26.4652 31.0542 26.5895 31.493C27.1293 33.4352 25.6505 35.3611 23.6221 35.348Z" fill="black"/>
<path d="M12.2205 32.6064C11.6545 32.5933 11.3928 32.1282 11.6251 31.7385C11.7723 31.4961 11.9653 31.2767 12.1518 31.0605C13.5456 29.4458 14.9426 27.8344 16.3396 26.2263C16.4213 26.1313 16.5162 26.0429 16.6078 25.9545C16.8663 25.7121 17.1542 25.6695 17.4159 25.9119C17.7006 26.1739 17.6744 26.4785 17.4225 26.7569C16.7878 27.448 16.1236 28.1161 15.5118 28.8268C14.5467 29.9502 13.6241 31.1064 12.6688 32.2396C12.5248 32.4099 12.3187 32.5245 12.2205 32.6064Z" fill="black"/>
<path d="M10.9411 34.2702C10.9476 34.6403 10.5878 35.053 10.2442 35.053C9.88108 35.053 9.67824 34.863 9.66188 34.4995C9.64552 34.1458 10.0316 33.7167 10.3587 33.7036C10.6728 33.6905 10.9378 33.946 10.9411 34.2669V34.2702Z" fill="black"/>
<path d="M24.0963 29.283C24.5642 29.3124 24.8652 29.5712 24.8194 29.9347C24.7703 30.3114 24.5315 30.4817 24.1519 30.4522C23.6841 30.4195 23.3962 30.1673 23.4355 29.8005C23.478 29.4107 23.7299 29.2633 24.0996 29.283H24.0963Z" fill="black"/>
</svg>
