<svg width="50" height="50" viewBox="0 0 50 50" fill="none" xmlns="http://www.w3.org/2000/svg">
<path d="M50 10.3517C49.888 10.8572 49.7978 11.3663 49.6606 11.8645C49.1261 13.789 48.0862 15.3921 46.5299 16.6378C46.223 16.8833 46.2194 17.0674 46.3385 17.4032C50.668 29.4302 43.977 42.8582 31.7794 46.6168C26.8578 48.1333 21.9686 48.0069 17.1264 46.2522C17.0687 46.2305 17.0073 46.2161 16.9531 46.2016C13.3278 50.9785 6.67651 51.1229 2.79842 47.3101C-1.10134 43.4792 -1.04718 36.7309 3.74086 33.0914C0.844926 24.0215 2.24595 15.7965 9.03804 9.01574C15.8157 2.24942 24.0305 0.86294 33.1191 3.75867C33.8485 2.80907 34.7548 1.95696 35.8525 1.31788C36.961 0.667967 38.1454 0.249133 39.4237 0.0866551C39.5356 0.0722126 39.6403 0.028885 39.7487 0C40.3336 0 40.9222 0 41.5072 0C41.6155 0.028885 41.7238 0.0722126 41.8321 0.0866551C45.6705 0.581311 48.7976 3.36511 49.7256 7.12738C49.8303 7.54983 49.9133 7.97588 50.0036 8.40194V10.3553L50 10.3517ZM32.1152 5.17042C25.1787 2.50939 15.8337 3.85254 9.50745 10.6875C3.23895 17.4646 2.87786 26.4659 5.22132 32.2104C9.41718 30.1885 14.5663 31.4522 17.2925 35.5394C17.5525 34.9112 18.0075 34.4165 17.8522 33.6655C17.5958 32.4415 17.4153 31.2031 17.1986 29.9682C17.1228 29.5205 17.2456 29.1847 17.6572 28.9428C18.2603 28.589 18.8488 28.2099 19.4302 27.8235C19.5529 27.7405 19.6902 27.6105 19.7263 27.4733C19.9032 26.8017 20.0476 26.1193 20.1993 25.4477C19.8767 25.2431 19.5915 25.2636 19.3435 25.5091C18.8488 26.0038 18.3722 26.5165 17.8558 26.9895C17.6645 27.1628 17.4009 27.2964 17.1481 27.3505C15.9565 27.6141 14.7613 27.8452 13.5661 28.0835C13.0208 28.1918 12.602 27.9571 12.5045 27.4949C12.4106 27.04 12.7031 26.6681 13.2628 26.5562C14.328 26.3359 15.4004 26.1301 16.462 25.8954C16.6678 25.8485 16.8845 25.7293 17.0398 25.5849C17.65 25 18.2422 24.3934 18.8344 23.7868C19.246 23.368 19.506 23.3283 20.0476 23.5991C20.2751 23.7146 20.5098 23.8193 20.759 23.9385C20.8384 23.7796 20.907 23.6496 20.9684 23.5196C21.214 22.9708 21.0262 22.6675 20.434 22.6603C20.1415 22.6567 19.8382 22.7036 19.5566 22.6459C19.3074 22.5917 19.0041 22.4834 18.8597 22.2993C18.0941 21.328 17.3684 20.3278 16.6353 19.3313C16.2923 18.8655 16.332 18.4106 16.722 18.129C17.1084 17.8473 17.5381 17.9448 17.8956 18.4142C18.3614 19.0208 18.8633 19.6057 19.2605 20.2556C19.6721 20.9272 20.1812 21.2413 20.9684 21.1077C21.1778 21.0716 21.4053 21.1547 21.6075 21.18C21.817 20.9055 22.0047 20.6384 22.2142 20.3928C22.7522 19.7754 22.81 19.2591 22.4092 18.5117C20.7518 15.4318 19.0944 12.3556 17.4406 9.27571C17.372 9.14573 17.2961 9.01935 17.242 8.88576C17.0867 8.47415 17.2095 8.14197 17.5814 7.92533C17.9605 7.70508 18.3072 7.80257 18.578 8.13836C18.6899 8.27556 18.7622 8.44526 18.8488 8.60052C20.3148 11.3193 21.7773 14.0381 23.2433 16.7605C23.3408 16.9447 23.4491 17.1216 23.5177 17.2408H26.4678C26.4822 17.2191 26.5256 17.1685 26.5545 17.1144C28.0963 14.2512 29.6382 11.3879 31.1764 8.5247C31.245 8.39833 31.3028 8.26112 31.3389 8.12031C31.5989 7.15266 31.8516 6.1814 32.1152 5.17403V5.17042ZM31.4725 11.4493C31.4075 11.4818 31.3678 11.489 31.3569 11.5107C30.0426 13.9406 28.7102 16.3634 27.4464 18.8186C27.2766 19.1436 27.3344 19.6996 27.4933 20.0534C27.6811 20.4795 28.0927 20.8008 28.3455 21.0969C28.8149 21.0969 29.2337 21.0752 29.6454 21.1041C29.9595 21.1258 30.1509 21.0175 30.3351 20.7647C30.9056 19.974 31.4978 19.1977 32.09 18.4178C32.4474 17.9448 32.8699 17.8437 33.2599 18.1218C33.6643 18.4106 33.6968 18.8655 33.3285 19.3638C32.7977 20.0823 32.2633 20.8008 31.718 21.5121C30.707 22.8264 31.1692 22.6567 29.5118 22.6603C29.4612 22.6603 29.4143 22.6567 29.3637 22.6603C29.0243 22.7109 28.8221 23.0142 28.934 23.3319C29.0063 23.5377 29.1254 23.7291 29.2265 23.9349C29.4612 23.8265 29.6526 23.7363 29.844 23.646C30.5337 23.3102 30.7142 23.3463 31.2486 23.8915C31.7939 24.4476 32.3391 25.0144 32.9096 25.5452C33.0974 25.7221 33.361 25.8629 33.6138 25.9207C34.6754 26.159 35.7478 26.3504 36.813 26.5742C37.3005 26.6789 37.5641 27.0689 37.481 27.4949C37.3907 27.9427 36.9791 28.1954 36.4736 28.1015C35.8669 27.986 35.2675 27.8019 34.6573 27.7477C33.0902 27.6141 31.7939 27.0147 30.855 25.7221C30.7973 25.6427 30.707 25.5921 30.6528 25.5127C30.3784 25.1264 30.0895 25.1589 29.779 25.4694C29.9595 26.2023 29.9631 27.0508 30.364 27.6141C30.7684 28.181 31.57 28.4626 32.1947 28.8706C32.2236 28.8887 32.2488 28.9031 32.2813 28.9175C32.7508 29.1414 32.8735 29.5169 32.7869 30.0079C32.563 31.2717 32.3319 32.5354 32.1477 33.8063C32.1044 34.088 32.1658 34.4274 32.2886 34.6837C32.9132 35.9908 33.5668 37.2798 34.2204 38.5687C34.3973 38.9154 34.4479 39.2475 34.1807 39.5689C33.8015 40.0202 33.1588 39.9191 32.8627 39.3414C32.0863 37.8213 31.3172 36.2977 30.5698 34.7668C30.4759 34.579 30.4614 34.319 30.4976 34.1096C30.6745 32.9542 30.8803 31.8024 31.0753 30.647C31.1908 29.9718 31.1764 29.9502 30.4795 29.7263C30.4795 29.8635 30.4795 29.9899 30.4795 30.1127C30.4867 34.6837 28.8546 38.5832 25.6806 41.8508C25.2473 42.2949 24.8032 42.3382 24.406 41.9375C21.9 39.4172 20.2932 36.424 19.7335 32.9073C19.5674 31.8602 19.5349 30.7878 19.441 29.7335C19.0197 29.9117 18.8452 30.2077 18.9174 30.6218C19.116 31.7916 19.3291 32.9578 19.5024 34.1313C19.5385 34.3696 19.4699 34.6512 19.3688 34.8751C19.0438 35.5828 18.6574 36.2652 18.3361 36.9765C18.2422 37.1859 18.2169 37.4783 18.2855 37.695C18.6936 39.0381 18.903 40.4029 18.6538 41.7894C18.4697 42.8149 18.1555 43.8186 17.8992 44.8404C24.7274 47.4726 34.1265 46.2016 40.4889 39.3162C46.8007 32.4848 47.0896 23.4366 44.7714 17.8004C42.056 19.0425 39.3226 19.1183 36.6144 17.8329C33.899 16.5403 32.2272 14.3559 31.4761 11.4493H31.4725ZM40.6622 1.56701C36.3436 1.55618 32.823 5.05849 32.8157 9.36959C32.8085 13.6373 36.3075 17.1722 40.5467 17.1866C44.9195 17.201 48.4148 13.7421 48.4365 9.38764C48.4545 5.10182 44.9519 1.58146 40.6622 1.57062V1.56701ZM17.1806 40.6015C17.1806 36.3193 13.6708 32.8242 9.37024 32.8206C5.08411 32.8206 1.57071 36.3229 1.55988 40.6088C1.54905 44.8982 5.05522 48.4294 9.33052 48.4366C13.6889 48.4438 17.1806 44.9596 17.1842 40.5979L17.1806 40.6015ZM22.2142 24.5848C20.9793 27.5455 20.7301 30.6326 21.4956 33.7919C22.0914 36.2507 23.2541 38.4099 25.0343 40.3235C25.5398 39.6555 26.002 39.0454 26.4534 38.4352C26.5075 38.3629 26.5509 38.2582 26.5509 38.168C26.5436 37.0776 26.6195 35.9799 26.4931 34.9004C26.2078 32.4632 25.8215 30.0368 25.4748 27.6069C25.352 26.7439 25.222 25.8846 25.1101 25.1228C24.1099 24.935 23.2072 24.7689 22.2106 24.5812L22.2142 24.5848ZM26.6592 24.852C27.143 28.2315 27.6161 31.5497 28.0891 34.8679C29.2915 31.3583 29.1579 27.921 27.7461 24.5017C27.3597 24.6245 27.0239 24.7328 26.6592 24.8484V24.852ZM25.0198 21.0969C24.6624 21.0969 24.3049 21.0861 23.9474 21.1041C23.8138 21.1114 23.626 21.1511 23.561 21.2449C23.2505 21.6963 22.9616 22.162 22.7053 22.6423C22.6619 22.7217 22.7811 22.9925 22.8858 23.0322C24.2904 23.5991 25.7059 23.5738 27.1141 23.0358C27.2116 22.9997 27.3452 22.7867 27.3164 22.7325C27.0528 22.2343 26.8181 21.7035 26.4497 21.2919C26.2764 21.1005 25.8323 21.1438 25.5109 21.0969C25.352 21.0752 25.1859 21.0933 25.0234 21.0933L25.0198 21.0969ZM25.7601 18.7933H24.2399V19.5046H25.7601V18.7933Z" fill="black"/>
<path d="M41.4061 8.21758C41.4061 9.32604 41.4061 10.4309 41.4061 11.5394C41.4061 12.1459 41.0956 12.507 40.6081 12.4962C40.1387 12.4853 39.8462 12.1351 39.8462 11.5538C39.8462 9.32243 39.8462 7.09467 39.8462 4.8633C39.8462 4.25672 40.1567 3.89566 40.6442 3.90649C41.1136 3.91732 41.4061 4.26755 41.4061 4.84886C41.4097 5.97177 41.4061 7.09467 41.4061 8.21758Z" fill="black"/>
<path d="M40.6224 14.8462C40.2071 14.8389 39.8533 14.4815 39.8533 14.0663C39.8533 13.633 40.2396 13.2683 40.6729 13.29C41.099 13.3116 41.4204 13.6655 41.4096 14.0915C41.3951 14.5176 41.0485 14.8498 40.6224 14.8426V14.8462Z" fill="black"/>
<path d="M8.58667 39.4138C8.58667 38.3234 8.58667 37.233 8.58667 36.1426C8.58667 35.5252 8.87554 35.1677 9.36301 35.1641C9.85409 35.1605 10.1466 35.5179 10.1502 36.1317C10.1502 38.3451 10.1502 40.5584 10.1502 42.7717C10.1502 43.3891 9.86131 43.7466 9.37384 43.7502C8.88637 43.7502 8.59028 43.3927 8.58667 42.7825C8.58667 41.6596 8.58667 40.5367 8.58667 39.4138Z" fill="black"/>
<path d="M10.1537 45.3306C10.1537 45.7567 9.81066 46.0997 9.38457 46.1033C8.96932 46.1033 8.60823 45.7567 8.5974 45.3414C8.58656 44.9082 8.9621 44.5363 9.39901 44.5471C9.8251 44.5579 10.1573 44.9046 10.1537 45.3306Z" fill="black"/>
</svg>
