<svg width="20" height="22" viewBox="0 0 20 22" fill="none" xmlns="http://www.w3.org/2000/svg">
<g clip-path="url(#clip0_136_337)">
<path d="M11.8771 2.59815C12.5275 2.36507 13.1619 2.11747 13.8097 1.9125C14.4672 1.7039 15.1407 1.56876 15.8391 1.64132C16.3811 1.69755 16.7889 1.96147 16.9737 2.48025C17.131 2.92284 17.2803 3.38811 17.3141 3.85247C17.3807 4.76668 17.3647 5.68633 17.3834 6.61052C17.4002 6.60327 17.4616 6.57061 17.5264 6.54794C18.0977 6.34841 18.6629 6.12621 19.244 5.95933C19.6553 5.84142 19.9112 6.05456 19.9628 6.49352C20.073 7.4295 19.921 8.3428 19.7033 9.24613C19.3141 10.8578 18.6753 12.3706 17.9298 13.839C17.1221 15.4279 16.183 16.9353 15.162 18.39C12.9247 21.5762 9.01427 22.8087 5.40593 21.4628C1.03612 19.833 -1.18166 14.5935 0.639838 10.2311C1.05923 9.22618 1.6732 8.35459 2.31828 7.50024C3.31521 6.17881 4.37257 4.91089 5.5481 3.74908C6.79826 2.51381 8.1204 1.37014 9.69488 0.581086C10.1614 0.347092 10.6661 0.182933 11.1672 0.0360063C11.5937 -0.0891535 11.878 0.117632 11.8993 0.568389C11.9278 1.17605 11.8993 1.78643 11.8931 2.395C11.8931 2.46755 11.8825 2.54102 11.8771 2.59906V2.59815ZM10.8917 1.21505C10.6501 1.32025 10.4377 1.40279 10.2342 1.50437C8.90764 2.16826 7.77832 3.11058 6.70408 4.12819C5.61385 5.16121 4.61425 6.2822 3.69906 7.47666C3.09486 8.26571 2.46489 9.05295 1.98685 9.92091C-0.038113 13.5959 1.41375 18.2767 5.1136 20.1495C8.24924 21.7376 12.1001 20.798 14.1775 17.9139C15.5325 16.032 16.7205 14.0448 17.657 11.909C18.2017 10.6682 18.6584 9.39669 18.8628 8.04532C18.9063 7.75782 18.9214 7.46578 18.9552 7.11207C18.5358 7.29346 18.1635 7.43404 17.8099 7.6118C16.4255 8.30743 15.1594 9.19534 13.9678 10.1848C12.2396 11.6196 10.5532 13.107 8.841 14.5627C8.37719 14.9572 7.89116 15.3254 7.4078 15.6955C7.2141 15.8442 7.00352 15.8206 6.80893 15.681C6.60723 15.5368 6.52371 15.34 6.58946 15.0905C6.64099 14.8946 6.68275 14.6933 6.7565 14.5056C7.3536 12.981 7.95869 11.46 8.55845 9.93632C9.35369 7.91563 10.1045 5.87861 10.5852 3.75089C10.77 2.93463 10.9015 2.11021 10.8917 1.21505ZM8.24569 13.5823C8.26168 13.5932 8.27767 13.6031 8.29367 13.614C8.7948 13.1705 9.29415 12.7261 9.79618 12.2844C11.7963 10.5249 13.8026 8.7727 16.0586 7.3506C16.1199 7.3116 16.175 7.21365 16.1803 7.13837C16.2354 6.41008 16.3029 5.68271 16.3198 4.95261C16.3349 4.30504 16.2798 3.65748 16.0683 3.0344C15.9928 2.81219 15.8578 2.68885 15.6285 2.70789C15.2909 2.73692 14.9497 2.75506 14.6191 2.82489C13.6151 3.03803 12.6759 3.44071 11.7581 3.89691C11.687 3.93228 11.6248 4.03023 11.6017 4.11095C11.5066 4.45106 11.4346 4.79752 11.3422 5.13853C10.6918 7.51475 9.78107 9.79303 8.85789 12.0677C8.65352 12.5719 8.45005 13.0762 8.24657 13.5805L8.24569 13.5823Z" fill="black"/>
<path d="M10.8918 1.21875C10.9015 2.11391 10.77 2.93834 10.5852 3.7546C10.1045 5.88231 9.35371 7.91933 8.55848 9.94003C7.95872 11.4637 7.35362 12.9847 6.75653 14.5093C6.68278 14.697 6.64191 14.8983 6.58949 15.0943C6.52373 15.3437 6.60726 15.5405 6.80895 15.6847C7.00265 15.8234 7.21413 15.847 7.40783 15.6992C7.89119 15.3292 8.37722 14.9609 8.84103 14.5664C10.5523 13.1107 12.2397 11.6233 13.9679 10.1885C15.1594 9.19904 16.4256 8.31023 17.8099 7.6155C18.1644 7.43774 18.5358 7.29716 18.9552 7.11577C18.9206 7.47039 18.9063 7.76243 18.8628 8.04903C18.6584 9.40039 18.2017 10.671 17.6571 11.9127C16.7197 14.0485 15.5326 16.0357 14.1776 17.9176C12.1002 20.8017 8.24927 21.7413 5.11363 20.1532C1.41378 18.2804 -0.0380852 13.5996 1.98599 9.92461C2.46403 9.05665 3.094 8.26942 3.6982 7.48037C4.61339 6.28591 5.61299 5.164 6.70322 4.13189C7.77746 3.11429 8.90678 2.17196 10.2334 1.50807C10.4368 1.40649 10.6492 1.32486 10.8909 1.21875H10.8918ZM4.05095 9.67429C3.79505 9.48292 3.46807 9.55004 3.26548 9.85387C2.17347 11.4864 1.84383 13.2667 2.36273 15.1732C2.52089 15.7536 2.81055 16.2996 3.07445 16.8447C3.21928 17.1449 3.55603 17.2111 3.8146 17.0487C4.06872 16.8891 4.13713 16.5907 3.98519 16.2969C3.95765 16.2434 3.92477 16.1935 3.89545 16.1409C3.2255 14.9346 3.02913 13.6549 3.3339 12.2999C3.48228 11.6378 3.75684 11.0329 4.13624 10.476C4.33705 10.1813 4.30062 9.86021 4.05095 9.67429Z" fill="white"/>
<path d="M8.24552 13.5856C8.44899 13.0813 8.65247 12.5762 8.85683 12.0728C9.78001 9.79815 10.6908 7.51988 11.3412 5.14366C11.4345 4.80355 11.5055 4.45619 11.6006 4.11608C11.6237 4.03446 11.6868 3.93741 11.757 3.90204C12.6749 3.44584 13.614 3.04316 14.6181 2.83002C14.9486 2.76019 15.2898 2.74205 15.6275 2.71302C15.8567 2.69307 15.9918 2.81732 16.0673 3.03953C16.2787 3.66261 16.3338 4.30926 16.3187 4.95774C16.3019 5.68693 16.2343 6.41521 16.1792 7.1435C16.1739 7.21787 16.1188 7.31673 16.0575 7.35572C13.8015 8.77783 11.7952 10.5301 9.79512 12.2896C9.2931 12.7312 8.79285 13.1757 8.29261 13.6192C8.27662 13.6083 8.26062 13.5983 8.24463 13.5874L8.24552 13.5856Z" fill="white"/>
<path d="M4.05097 9.66989C4.29976 9.85582 4.33619 10.1778 4.13627 10.4716C3.75687 11.0285 3.48231 11.6334 3.33393 12.2955C3.02916 13.6505 3.22553 14.9302 3.89548 16.1365C3.9248 16.1891 3.95768 16.239 3.98522 16.2925C4.13716 16.5854 4.06874 16.8847 3.81462 17.0443C3.55606 17.2067 3.21931 17.1405 3.07448 16.8403C2.81147 16.2952 2.52092 15.7492 2.36276 15.1688C1.84386 13.2623 2.17261 11.482 3.26551 9.84947C3.46898 9.54564 3.79596 9.47852 4.05097 9.66989Z" fill="black"/>
</g>
<defs>
<clipPath id="clip0_136_337">
<rect width="20" height="22" fill="white"/>
</clipPath>
</defs>
</svg>
