<svg width="42" height="48" viewBox="0 0 42 48" fill="none" xmlns="http://www.w3.org/2000/svg">
<path d="M21.1151 0.00358134C21.229 0.145482 21.3254 0.30476 21.4568 0.426389C22.0204 0.938968 22.6016 1.43417 23.1594 1.94964C24.316 3.01824 25.4637 4.09553 26.6641 5.21625C25.9573 5.87652 25.2768 6.50784 24.535 7.19996C23.8983 6.62947 23.2587 6.05607 22.5432 5.41607L22.5432 14.1328L19.5351 14.1328L19.5351 5.5377C19.4971 5.50874 19.4591 5.47978 19.4212 5.45082C18.7787 6.02421 18.1391 6.6005 17.4849 7.18838C16.7518 6.52231 16.0421 5.87652 15.3266 5.22783C16.2115 4.3996 17.0702 3.58874 17.9375 2.78367C18.7261 2.0539 19.5263 1.33281 20.3148 0.605935C20.5251 0.411908 20.7208 0.2034 20.9252 0.00358136C20.9895 0.00358135 21.0508 0.00358134 21.1151 0.00358134Z" fill="black"/>
<path d="M21.5036 48C18.3319 47.9537 15.759 47.4324 13.3262 46.2538C11.9389 45.579 10.6539 44.7739 9.49735 43.7488C8.57155 42.9292 7.75088 42.0344 7.00907 41.0411C5.6189 39.179 4.81284 37.1084 4.37476 34.8438C4.11483 33.5088 4.0097 32.1796 4.21997 30.859C4.46822 29.2952 4.75443 27.7111 5.51376 26.2979C6.12707 25.1569 6.82508 24.0391 7.64282 23.0342C9.16441 21.1634 11.0657 19.7415 13.2677 18.7048C15.0025 17.8881 16.8103 17.3582 18.7058 17.112C21.3021 16.779 23.8517 16.9933 26.3488 17.7665C28.84 18.5368 31.0858 19.7473 32.9462 21.5805C33.7377 22.3624 34.5116 23.1906 35.1454 24.0999C35.7791 25.0092 36.2931 26.017 36.74 27.0335C38.2294 30.4246 38.1477 33.891 36.997 37.3401C36.4684 38.9329 35.6097 40.404 34.5291 41.6956C31.8101 44.9535 28.3347 46.9835 24.1175 47.6988C23.0982 47.8726 22.0585 47.9363 21.5036 48ZM21.7519 19.7821C19.5206 19.7618 18.0019 19.9964 16.5241 20.4568C14.176 21.1924 12.1433 22.4637 10.4728 24.2447C9.33965 25.4523 8.41968 26.851 7.90567 28.4264C6.63816 32.3157 7.08208 35.9906 9.48275 39.3933C10.5166 40.8586 11.7958 42.0315 13.3057 42.9843C15.2391 44.2034 17.3448 44.9129 19.6199 45.0954C24.6081 45.495 28.7757 43.8386 32.0408 40.071C33.2704 38.6548 34.0589 36.9578 34.4853 35.1508C34.9789 33.0628 34.938 30.9719 34.2196 28.8985C33.6501 27.2565 32.8498 25.7911 31.6962 24.488C30.5952 23.2427 29.316 22.2523 27.8528 21.4704C25.7325 20.3381 23.4633 19.8197 21.746 19.7879L21.7519 19.7821Z" fill="black"/>
<path d="M7.2602 19.7578L4.12064 19.7578L4.12064 10.4648C3.44307 11.0816 2.83853 11.6289 2.17557 12.2313C1.46004 11.5855 0.741593 10.9368 -0.00021879 10.2679C0.601408 9.69736 1.15631 9.15582 1.73165 8.63166C2.25734 8.15094 2.81224 7.69627 3.33793 7.21265C4.02718 6.57844 4.71058 5.93845 5.37354 5.27817C5.61302 5.04071 5.75321 5.06967 5.98685 5.28976C7.46171 6.6798 8.94825 8.05537 10.4348 9.43093C10.7269 9.70315 11.0393 9.9551 11.3635 10.2331C10.6918 10.8702 10.0697 11.461 9.44766 12.0489C9.26951 12.2168 9.11765 12.211 8.92781 12.0257C8.40504 11.5131 7.8589 11.0237 7.25727 10.4677L7.25727 19.7578L7.2602 19.7578Z" fill="black"/>
<path d="M37.8497 19.75L34.8036 19.75L34.8036 10.4396C34.091 11.0767 33.4572 11.6385 32.8001 12.2264C32.0904 11.5719 31.407 10.9406 30.6506 10.2427C32.546 8.49932 34.4093 6.78783 36.3193 5.0329C38.2118 6.77045 40.0985 8.50222 41.9968 10.2427C41.2813 10.9 40.5745 11.5487 39.8356 12.2293C39.1902 11.6443 38.5623 11.0738 37.8468 10.4251L37.8468 19.75L37.8497 19.75Z" fill="black"/>
<path d="M19.5031 25.6177L19.5031 22.6234L22.5316 22.6234C22.5316 23.4313 22.5609 24.2538 22.52 25.0733C22.4966 25.5251 22.6689 25.7017 23.0719 25.8755C24.5526 26.5184 25.5748 27.8708 25.5135 29.591L22.5579 29.591C22.4674 29.0118 22.2045 28.531 21.5796 28.3225C20.9779 28.1227 20.4201 28.1691 19.9528 28.6092C19.5323 29.006 19.3892 29.5041 19.5936 30.0659C19.8156 30.6798 20.2828 30.9318 20.9166 31.0302C21.638 31.1403 22.3915 31.2301 23.0544 31.5052C25.788 32.6404 26.3196 35.9968 24.4738 38.0065C24.0591 38.4583 23.4458 38.7479 22.8909 39.0549C22.6426 39.1939 22.5112 39.2952 22.52 39.5993C22.5433 40.5028 22.5287 41.4063 22.5287 42.3359L19.5148 42.3359L19.5148 39.2605C17.52 38.467 16.2701 36.8395 16.4365 35.2641L19.468 35.2641C19.5118 35.4147 19.5498 35.5768 19.6053 35.7332C19.9324 36.6165 21.0334 36.8713 21.819 36.4196C22.4732 36.0431 22.7448 35.212 22.3243 34.5314C21.9943 33.9957 21.4569 33.8653 20.8699 33.8306C19.4067 33.7466 18.1742 33.2167 17.2543 32.0351C16.4278 30.9723 16.162 29.7937 16.5563 28.5253C17.0031 27.0802 18.034 26.1535 19.5031 25.6206L19.5031 25.6177Z" fill="black"/>
</svg>
