<svg width="46" height="46" viewBox="0 0 46 46" fill="none" xmlns="http://www.w3.org/2000/svg">
<g clip-path="url(#clip0_140_413)">
<path d="M46 23.0472C46 30.1846 46 37.322 46 44.4575C46 45.9215 45.9231 46.0001 44.5088 46.0001C30.1792 46.0001 15.8477 46.0001 1.51809 46.0001C0.09416 46.0001 0.0192163 45.9234 0.0192163 44.4671C0.0192163 30.4148 0.0269028 16.3644 0 2.31405C0 1.39118 0.322834 1.00936 1.16259 0.650571C2.60189 0.0365976 3.86056 0.0960763 5.02122 1.13216C6.33369 2.30446 7.69613 2.33132 9.18732 1.49862C9.71 1.20698 10.3461 1.12448 10.8784 0.846274C12.4791 0.00973627 14.2047 -0.040149 15.913 0.140206C16.7259 0.226545 17.5772 0.631384 18.2613 1.10529C19.9177 2.25457 21.4243 2.27952 23.123 1.1264C25.2906 -0.345217 27.6772 -0.222422 30.0678 0.623709C30.1869 0.66592 30.3214 0.67935 30.4329 0.73691C32.0951 1.60031 33.6939 1.57537 35.2235 0.418412C35.7808 -0.00369438 36.3553 0.0461909 36.9011 0.443355C38.4211 1.54275 40.0141 1.63293 41.7474 0.957557C42.6295 0.614116 43.596 0.485565 44.5242 0.259163C45.7387 -0.0382303 45.9981 0.165148 45.9981 1.4449C46 8.64565 45.9981 15.8464 45.9981 23.0472H46ZM44.4396 13.874C42.0318 13.874 39.7086 13.8894 37.3853 13.8606C36.9626 13.8548 36.4284 13.803 36.1401 13.5498C34.8661 12.4369 33.4018 12.2067 31.7876 12.3295C30.8037 12.4043 29.8064 12.387 28.8206 12.3295C28.148 12.2892 27.708 12.5463 27.2353 12.9895C26.826 13.3752 26.2668 13.7896 25.7499 13.8241C25.0408 13.8721 24.5296 14.0755 24.1222 14.6108C23.6341 15.2516 23 15.384 22.2102 15.4377C20.9227 15.5241 19.9235 15.2075 19.1318 14.1637C18.7494 13.661 18.2247 13.2677 17.7962 12.7976C17.212 12.1587 16.5875 12.1913 15.9246 12.6269C14.9388 13.2754 13.9645 13.9412 12.9787 14.5878C11.2992 15.691 11.672 15.6795 10.0905 14.5897C9.41983 14.1273 8.83374 13.9028 8.1016 14.3805C7.89214 14.5168 7.6308 14.5705 7.39251 14.6607C4.73874 15.6699 5.56696 15.8502 3.54541 13.8567C2.98621 13.3061 2.46545 12.8974 1.61417 13.1967V26.3012C2.44624 25.0464 3.7049 25.2786 4.8502 25.363C5.81293 25.434 6.7872 25.6297 7.70958 25.9232C8.92021 26.3089 10.1481 26.731 11.255 27.3392C12.8903 28.241 14.1836 28.2889 15.3538 26.5986C15.89 25.8215 18.5437 25.8062 19.1279 26.543C19.8966 27.5138 20.8247 27.7306 21.97 27.6481C22.9231 27.579 23.8878 27.6865 24.8409 27.6174C25.5558 27.5656 26.3283 27.5004 26.9566 27.1972C28.8168 26.3031 30.7384 25.8925 32.7849 26.1113C33.5056 26.188 34.2396 26.2686 34.9276 26.4758C36.634 26.9938 38.2866 27.721 40.0199 28.1086C41.4419 28.4271 42.9446 28.3791 44.4435 28.4942V13.8702L44.4396 13.874ZM44.4396 29.8335C40.6233 30.5664 37.4334 28.6516 33.9956 27.8419C32.5697 27.5061 30.8403 27.4543 29.5086 27.957C27.2199 28.8223 24.9774 29.3692 22.5465 29.1792C21.9431 29.1312 21.3301 29.1216 20.7306 29.185C19.9177 29.2713 19.3527 28.9586 18.8108 28.3772C17.8058 27.2989 16.7547 27.3162 15.7285 28.3408C15.3673 28.7015 14.9849 29.0411 14.6505 29.4267C14.2105 29.9371 13.7512 30.0042 13.1267 29.7414C11.3069 28.9739 9.44866 28.3005 7.63848 27.5138C6.5297 27.0322 5.41708 26.8097 4.21221 26.8691C3.00735 26.9267 1.55844 28.3407 1.55652 29.5572C1.55652 34.208 1.55652 38.8589 1.55652 43.5097C1.55652 43.8148 1.58342 44.1199 1.59688 44.3923H44.4358V29.8373L44.4396 29.8335ZM44.4339 1.86509C43.4327 2.11643 42.5122 2.26801 41.6513 2.58075C39.8988 3.21774 38.2731 3.19088 36.6935 2.08381C36.4091 1.88427 35.7577 1.84974 35.4925 2.03968C33.7707 3.2753 32.0355 3.20623 30.2292 2.29679C30.0043 2.18358 29.7507 2.12602 29.5086 2.04736C27.5581 1.40269 25.6557 1.32978 23.8263 2.45795C23.3132 2.77453 22.7118 2.95489 22.216 3.29065C21.2033 3.97562 20.304 3.91614 19.2259 3.31752C17.581 2.40231 15.9553 1.24919 13.8895 1.64444C13.1171 1.79218 12.3465 1.98404 11.6047 2.24114C10.2807 2.69779 8.97017 3.19664 7.67115 3.72235C7.07737 3.96219 6.59696 3.91038 6.06275 3.55735C5.21338 2.99518 4.33136 2.48098 3.44164 1.98404C2.52118 1.47176 1.56421 2.02625 1.56036 3.04506C1.55652 4.47831 1.56036 5.91155 1.56036 7.34479C1.56036 8.73583 1.56036 10.1249 1.56036 11.5025C3.51851 11.6887 3.61843 11.6177 4.21029 12.4177C5.11154 13.6342 6.08388 13.8222 7.34063 13.0432C8.5993 12.2623 9.8253 12.1856 10.9456 13.3272C11.3299 13.7186 11.6816 13.6457 12.112 13.3349C13.0421 12.6653 14.0145 12.0513 14.9695 11.4181C16.4857 10.4108 17.6732 10.5202 18.9377 11.7827C19.4123 12.2547 19.885 12.7286 20.3578 13.2025C21.3359 14.181 22.3697 14.1484 23.3959 13.2025C23.7898 12.8379 24.3125 12.4197 24.7967 12.3909C25.5308 12.3468 26.0881 12.1683 26.5127 11.5908C26.9951 10.9365 27.635 10.7715 28.4325 10.7965C30.2484 10.8502 32.0701 10.783 33.886 10.8329C34.3933 10.8464 35.0063 10.9692 35.3791 11.2742C36.4879 12.1856 37.7024 12.4446 39.0994 12.3621C40.5945 12.2738 42.0972 12.3448 43.596 12.3391C43.8689 12.3391 44.1437 12.3045 44.4339 12.2834V1.86509Z" fill="black"/>
<path d="M7.71729 18.3812V16.9844H9.93485V18.3812H7.71729Z" fill="black"/>
<path d="M37.4969 18.429H35.3235V16.9766H37.4969V18.429Z" fill="black"/>
<path d="M16.8392 17.7422V19.1562H14.6409V17.7422H16.8392Z" fill="black"/>
<path d="M25.3406 19.1468V17.75H27.5581V19.1468H25.3406Z" fill="black"/>
<path d="M27.6733 20.7891H29.8563V22.2415H27.6733V20.7891Z" fill="black"/>
<path d="M6.88715 21.5859V22.9962H4.66382V21.5859H6.88715Z" fill="black"/>
<path d="M36.8416 22.9866V21.5725C36.9991 21.5495 37.1202 21.5188 37.2393 21.5188C37.8101 21.513 38.3827 21.5169 39.0284 21.5169V22.9866H36.8416Z" fill="black"/>
<path d="M42.0991 24.5403H40.6829V23.0859H42.0991V24.5403Z" fill="black"/>
<path d="M20.6557 23.804H19.251V22.3516H20.6557V23.804Z" fill="black"/>
<path d="M10.811 21.5625H12.2388V22.9823H10.811V21.5625Z" fill="black"/>
<path d="M13.0517 37.3537C13.3034 38.313 12.7999 39.0421 11.8929 39.6638C10.9744 40.2912 10.1558 41.0606 9.26222 41.7263C8.97397 41.9412 8.59733 42.1273 8.2476 42.1561C6.50276 42.3019 6.50083 42.2827 5.70528 40.696C5.16338 39.6158 4.63685 38.5279 4.06805 37.4611C3.76251 36.8913 3.83745 36.4538 4.31594 36.026C4.78866 35.6 5.22295 35.1319 5.67453 34.6829C7.02352 33.3379 8.35713 33.3149 9.66768 34.6714C10.1 35.1185 10.5382 35.3084 11.1646 35.2969C13.0517 35.2624 13.0517 35.2873 13.0517 37.3537ZM11.72 37.1139C11.6354 37.0026 11.5528 36.8913 11.4682 36.78C10.1173 37.1004 9.20457 36.5152 8.36289 35.5809C8.14959 35.3449 7.35019 35.3257 7.04658 35.5348C5.51312 36.5958 5.4939 36.828 6.32212 38.4838C6.5777 38.9942 6.82751 39.5064 7.08885 40.013C7.48663 40.7862 7.84405 40.8725 8.56082 40.3276C9.31794 39.752 10.0962 39.1918 10.7803 38.5356C11.18 38.1519 11.4125 37.5955 11.72 37.1158V37.1139Z" fill="black"/>
<path d="M25.3289 36.0312C25.4884 36.1579 25.8804 36.3363 26.0553 36.6395C26.5626 37.5182 26.9757 38.4488 27.4388 39.3544C27.7847 40.0297 27.5426 40.4346 26.8777 40.6821C24.9715 41.3901 23.0671 42.1 21.1666 42.8214C20.5171 43.0689 20.1309 42.8463 19.9214 42.2151C19.4506 40.8011 18.9664 39.3889 18.5013 37.9729C18.288 37.3244 18.5302 36.9062 19.2162 36.816C21.1705 36.557 23.1286 36.3133 25.3308 36.0332L25.3289 36.0312ZM20.2135 38.23C20.5633 39.27 20.8611 40.1621 21.1974 41.1618C22.7424 40.5842 24.2182 40.0336 25.7555 39.458C25.5095 38.9515 25.35 38.4948 25.0791 38.1168C24.935 37.9154 24.5871 37.7273 24.3489 37.7485C23.021 37.8655 21.6989 38.0497 20.2154 38.2281L20.2135 38.23Z" fill="black"/>
<path d="M42.9351 38.3231C42.9351 38.4823 42.9351 38.6416 42.9351 38.8008C42.9351 41.4236 42.791 41.6193 40.1564 42.1009C39.8567 42.1566 39.382 41.9724 39.1841 41.7364C38.427 40.8365 37.7448 39.8714 37.0434 38.9255C36.6245 38.3634 36.759 37.9048 37.3624 37.5978C38.8113 36.863 40.2583 36.1281 41.7264 35.4336C42.4259 35.1036 42.8909 35.4221 42.9274 36.2202C42.9582 36.9186 42.9332 37.6208 42.9351 38.3212V38.3231ZM38.7536 38.6224C39.1918 39.2172 39.5108 39.7391 39.9278 40.165C40.0834 40.3242 40.4908 40.3511 40.7348 40.2763C40.9847 40.2014 41.3421 39.9463 41.3613 39.741C41.4362 38.9793 41.3901 38.2041 41.3901 37.3081C40.4274 37.7878 39.6376 38.1792 38.7517 38.6205L38.7536 38.6224Z" fill="black"/>
<path d="M33.0982 34.2586C32.9002 34.5905 32.7715 35.0107 32.489 35.2371C31.8433 35.7494 31.1515 36.2233 30.4175 36.5955C30.1312 36.7394 29.5662 36.7068 29.3318 36.5111C28.5535 35.8587 27.8271 35.1316 27.1718 34.3564C26.9682 34.1147 27.0277 33.6312 27.0162 33.257C27.0124 33.117 27.143 32.9711 27.2141 32.8292C27.7381 31.7752 28.549 31.4663 29.6469 31.9024C30.4751 32.2325 31.2918 32.5874 32.1297 32.8886C32.7619 33.117 33.0789 33.5007 33.0982 34.2586ZM30.2003 34.9282C30.4425 34.7651 30.798 34.5233 31.2841 34.1952C30.3214 33.8422 29.5124 33.5467 28.4786 33.1688C29.1684 33.8729 29.6373 34.3526 30.2003 34.9263V34.9282Z" fill="black"/>
<path d="M15.3443 33.5533C14.8101 32.0836 16.0188 31.2087 17.0257 30.2379C17.4504 29.8292 17.8674 29.8407 18.2786 30.2532C18.9781 30.9516 19.6833 31.6442 20.3751 32.3503C20.9151 32.899 20.7825 33.3787 20.1676 33.7528C19.0242 34.4493 17.8827 35.1496 16.7221 35.8154C15.8939 36.2912 15.3846 35.9862 15.3462 35.0288C15.3289 34.6143 15.3443 34.1999 15.3443 33.5552V33.5533ZM18.5649 32.9163C18.2306 32.4769 17.9692 32.1335 17.7079 31.7901C17.5907 31.8016 17.4754 31.8112 17.3581 31.8227C17.1525 32.4443 16.9488 33.066 16.7432 33.6895C16.8297 33.7433 16.9162 33.7989 17.0026 33.8526C17.5292 33.536 18.0576 33.2195 18.563 32.9163H18.5649Z" fill="black"/>
<path d="M5.3999 31.3931V30.0078H6.8565V31.3931H5.3999Z" fill="black"/>
<path d="M36.0959 30.7422H37.5237V32.162H36.0959V30.7422Z" fill="black"/>
<path d="M22.2852 33.7109V32.2969H23.7187V33.7109H22.2852Z" fill="black"/>
<path d="M40.5924 32.2891V33.7146H39.1704V32.2891H40.5924Z" fill="black"/>
<path d="M33.6649 39.845H32.2583V38.3906H33.6649V39.845Z" fill="black"/>
<path d="M15.396 39.9219H16.8122V41.3532H15.396V39.9219Z" fill="black"/>
<path d="M31.3879 42.1344H29.9717V40.7031H31.3879V42.1344Z" fill="black"/>
<path d="M11.5664 41.4453H12.9826V42.8766H11.5664V41.4453Z" fill="black"/>
<path d="M29.893 4.74219V6.15049H27.6697V4.74219H29.893Z" fill="black"/>
<path d="M3.13037 9.99616V8.58594H5.32487V9.99616H3.13037Z" fill="black"/>
<path d="M39.9277 9.32031H41.3555V10.7401H39.9277V9.32031Z" fill="black"/>
<path d="M21.4165 10.7714H19.9888V9.35156H21.4165V10.7714Z" fill="black"/>
<path d="M32.8964 8.50122H31.5071V7.04688H32.8964V8.50122Z" fill="black"/>
<path d="M19.91 5.52344V6.93749H18.4534V5.52344H19.91Z" fill="black"/>
<path d="M39.1667 4.72656H40.583V6.18091H39.1667V4.72656Z" fill="black"/>
<path d="M9.98483 5.43474V6.78164H8.64737C8.30148 5.33689 8.4456 5.18339 9.98483 5.43474Z" fill="black"/>
</g>
<defs>
<clipPath id="clip0_140_413">
<rect width="46" height="46" fill="white"/>
</clipPath>
</defs>
</svg>
