<svg width="31" height="34" viewBox="0 0 31 34" fill="none" xmlns="http://www.w3.org/2000/svg">
<g clip-path="url(#clip0_124_2735)">
<path d="M21.1641 29.0012C19.6939 29.3839 18.2767 29.1206 16.8772 28.6714C14.1579 27.7994 11.6156 26.5289 9.30349 24.8334C7.60264 23.606 6.27372 22.0594 5.37871 20.1406C4.38621 17.9829 4.27943 15.824 5.49235 13.6896C5.51007 13.6808 5.51006 13.6365 5.51891 13.61L5.46576 13.5923C5.22665 13.7343 4.98753 13.832 4.75719 13.5934C4.53571 13.3725 4.60651 13.1158 4.73046 12.8767C5.68654 10.8047 7.27167 9.54577 9.55673 9.19727C9.59215 9.17952 9.66301 9.18826 9.76043 9.16157C9.54779 8.86988 9.36174 8.63124 9.16682 8.37491C8.60867 7.70324 8.05052 7.03156 7.49236 6.35989C7.24429 6.0417 7.30622 5.72305 7.66046 5.54555C7.99699 5.37692 8.33352 5.20829 8.65234 5.04854C8.91802 4.91542 9.13946 4.95933 9.36094 5.18022C10.238 6.13458 11.1151 7.08894 11.9833 8.02562C11.9922 8.0433 12.0276 8.0698 12.0276 8.0698C12.5501 7.69737 13.0549 7.33382 13.5951 6.99676C14.6755 6.32265 15.8445 5.95811 17.0933 5.79697C17.4299 5.76108 17.6336 5.85811 17.7046 6.13232C17.7843 6.37997 17.6781 6.56595 17.3858 6.73451C17.2796 6.78776 17.1733 6.84101 17.1025 6.965C17.191 6.96487 17.2973 6.95586 17.377 6.93804C20.105 6.72161 22.2044 7.81574 23.7017 10.0522C24.9864 11.9971 25.5361 14.1996 25.5189 16.5091C25.5197 19.6947 24.927 22.8015 23.7585 25.7764C23.369 26.7681 22.8555 27.6891 22.0408 28.4071C21.9523 28.4957 21.8372 28.5755 21.7486 28.6641L21.0933 28.9925L21.1641 29.0012ZM7.25475 12.9614C7.25475 12.9614 7.10421 13.1032 7.04223 13.2007C5.37755 15.141 5.21862 17.3004 6.21115 19.5907C6.9201 21.2709 8.07184 22.6408 9.4981 23.7624C11.8014 25.573 14.3968 26.8611 17.187 27.7418C18.0019 27.9972 18.8434 28.1287 19.6848 28.2159C20.7388 28.3294 21.5801 27.8857 22.1291 26.9911C22.4921 26.3889 22.8285 25.7778 23.0764 25.1226C24.0678 22.5462 24.5366 19.8554 24.6245 17.1122C24.6948 14.776 24.216 12.538 22.9136 10.5578C21.4782 8.35659 18.8651 7.38712 16.3587 8.17839C16.2702 8.22276 16.1905 8.32907 16.1108 8.39113C16.288 8.47935 16.4208 8.47915 16.5271 8.51439C17.8292 8.72482 18.777 9.42247 19.2999 10.6428C19.4328 10.9523 19.3886 11.1736 19.0875 11.3245C18.5915 11.573 18.1044 11.8392 17.5996 12.0258C16.8026 12.2924 15.9788 12.2848 15.1374 12.1091C15.0136 12.9676 14.7038 13.7644 14.1459 14.4201C14.0308 14.5441 13.8537 14.6771 13.6854 14.6951C12.8086 14.8468 11.9848 14.7064 11.2319 14.2209C11.1699 14.1856 11.1079 14.1503 11.0281 14.1238C10.2667 15.2134 9.27486 15.9316 8.04382 16.3493C7.69841 16.456 7.50354 16.3767 7.36175 16.0495C7.24655 15.8196 7.16678 15.5719 7.10472 15.3154C6.91855 14.5459 7.02466 13.7847 7.25476 13.0057L7.25475 12.9614ZM6.4131 11.9893C6.98877 11.8115 7.58218 11.7575 8.16679 11.9071C8.6451 12.0214 8.75145 12.3221 8.52127 12.7472C8.29994 13.1899 8.10519 13.6415 8.00787 14.1106C7.93709 14.4558 8.02576 14.8539 8.03471 15.2698C9.13288 14.808 9.92101 14.1255 10.4434 13.1779C10.6824 12.7263 10.9924 12.6815 11.3556 13.0527C11.8074 13.5121 12.3566 13.7237 12.9943 13.7581C13.3398 13.7842 13.5257 13.6688 13.694 13.3854C14.0215 12.8009 14.1985 12.1812 14.1984 11.5176C14.1894 11.0575 14.4728 10.8712 14.9157 11.0033C14.9866 11.012 15.0486 11.0473 15.1106 11.0826C16.2089 11.4173 17.2363 11.2565 18.2725 10.7151C18.2016 10.5737 18.1484 10.4676 18.051 10.3615C17.4485 9.64566 16.6779 9.39019 15.7833 9.41807C15.3228 9.4276 15.1101 9.26864 15.1455 8.80846C15.1897 8.36595 15.3401 7.91444 15.4286 7.47187C15.4551 7.39219 15.4817 7.31251 15.5348 7.1974C14.3303 7.62393 13.3385 8.29792 12.4707 9.13099C12.1253 9.45891 11.8862 9.42387 11.585 9.08807C10.7256 8.12483 9.87511 7.17928 9.01575 6.21604C8.86514 6.04814 8.75001 6.0837 8.59947 6.22551C8.75894 6.41109 8.9007 6.60556 9.06902 6.76458C9.79549 7.55104 10.4954 8.37294 11.0005 9.3367C11.2309 9.79649 11.0361 10.1596 10.5135 10.1338C9.76951 10.1084 9.05211 10.2245 8.37018 10.4998C7.59968 10.8195 6.94436 11.2806 6.43081 11.9804L6.4131 11.9893Z" fill="black"/>
<path d="M7.25469 12.9617C7.01572 13.723 6.90962 14.4842 7.10465 15.2714C7.16671 15.528 7.2642 15.7667 7.36168 16.0055C7.52118 16.3238 7.71606 16.4032 8.04375 16.3053C9.28365 15.9053 10.2755 15.1871 11.0281 14.0799C11.0901 14.1152 11.1698 14.1416 11.2318 14.1769C11.9848 14.6624 12.8085 14.8028 13.6853 14.6511C13.8536 14.6331 14.0307 14.5001 14.1458 14.3761C14.7037 13.7204 15.0224 12.9413 15.1373 12.0651C15.9788 12.2408 16.8025 12.2484 17.5996 11.9818C18.1132 11.8129 18.6003 11.5467 19.0874 11.2805C19.3885 11.1296 19.4327 10.9083 19.2998 10.5988C18.7858 9.35192 17.8291 8.68083 16.527 8.4704C16.403 8.44404 16.2879 8.43536 16.1107 8.34714C16.1816 8.26739 16.2613 8.16109 16.3587 8.1344C18.8562 7.36969 21.4781 8.3126 22.9135 10.5138C24.2071 12.5206 24.6947 14.732 24.6244 17.0682C24.5365 19.8115 24.05 22.5111 23.0763 25.0786C22.8284 25.7338 22.4743 26.3538 22.129 26.9471C21.5801 27.8417 20.7476 28.3031 19.6847 28.1719C18.8433 28.0847 17.9841 27.9621 17.1869 27.6978C14.3967 26.8171 11.8013 25.529 9.49803 23.7184C8.07177 22.5968 6.93774 21.218 6.21108 19.5467C5.24512 17.2652 5.38634 15.1147 7.04216 13.1567C7.113 13.0769 7.18384 12.9972 7.25468 12.9174L7.25469 12.9617ZM22.048 21.346C22.048 21.346 22.1277 21.5052 22.1721 21.5936C22.305 21.8588 22.5884 21.9381 22.8364 21.8138C23.0666 21.6984 23.1552 21.4328 23.0399 21.1587C22.9956 21.0703 22.9602 20.9995 22.9159 20.9111C22.6855 20.4513 22.4375 20.3101 22.1452 20.4787C21.8618 20.6207 21.8265 20.9039 22.048 21.346ZM20.2135 16.4907C20.178 16.42 20.1426 16.3493 20.1071 16.2785C19.9742 16.0133 19.6819 15.9164 19.4516 16.0317C19.2037 16.156 19.1152 16.4216 19.2569 16.7045C19.3367 16.8637 19.4164 17.0229 19.4962 17.182C19.6291 17.403 19.8417 17.4735 20.0808 17.3758C20.3199 17.2781 20.4173 17.0302 20.3375 16.7826C20.2932 16.6942 20.24 16.588 20.1869 16.4819L20.2135 16.4907ZM16.3355 22.9915C16.2912 22.9031 16.2469 22.8147 16.2026 22.7263C16.0697 22.5052 15.8571 22.4348 15.618 22.5324C15.37 22.6567 15.2638 22.8427 15.3436 23.0903C15.4145 23.3203 15.5208 23.5325 15.6626 23.727C15.8132 23.9391 16.0523 23.9742 16.2737 23.8411C16.504 23.7257 16.5659 23.4956 16.4685 23.2568C16.4242 23.1684 16.3798 23.0799 16.3355 22.9915ZM11.8626 22.423C11.8183 22.3346 11.7828 22.2638 11.7385 22.1754C11.5967 21.9367 11.3133 21.8575 11.083 21.9729C10.8528 22.0883 10.7643 22.3538 10.8795 22.628C10.9681 22.8048 11.0478 22.964 11.1365 23.1408C11.2694 23.3619 11.482 23.4323 11.7034 23.3435C11.9425 23.2458 12.0487 23.0598 12.0044 22.7944C11.9866 22.6706 11.9069 22.5557 11.8626 22.423ZM8.34541 18.5436C8.34541 18.5436 8.40743 18.6674 8.44288 18.7382C8.59352 19.0388 8.85925 19.1269 9.10722 19.0026C9.35519 18.8784 9.43484 18.5951 9.31077 18.3033C9.23989 18.1618 9.17786 18.038 9.10697 17.8965C8.97405 17.6313 8.68174 17.5344 8.45148 17.6497C8.20351 17.774 8.12387 18.0573 8.26564 18.3402C8.30109 18.411 8.32767 18.464 8.36312 18.5348L8.34541 18.5436ZM15.3332 16.7015C15.2889 16.6131 15.2446 16.5247 15.2003 16.4363C15.0674 16.171 14.7928 16.1095 14.5537 16.2072C14.3411 16.3137 14.2261 16.5704 14.3235 16.8092C14.421 17.0037 14.5008 17.2072 14.616 17.3928C14.7666 17.605 14.988 17.6489 15.236 17.5246C15.4663 17.4092 15.5282 17.1791 15.4484 16.9314C15.413 16.8607 15.3687 16.7723 15.3244 16.6838L15.3332 16.7015ZM22.1431 11.4087C22.0988 11.3203 22.0545 11.2318 22.0102 11.1434C21.8684 10.9047 21.6293 10.8254 21.399 10.9408C21.1688 11.0562 21.0625 11.2864 21.1512 11.5517C21.1955 11.6402 21.2486 11.7463 21.3018 11.8524C21.5322 12.3122 21.7714 12.4357 22.0725 12.2848C22.3559 12.1428 22.3824 11.8862 22.152 11.4264L22.1431 11.4087ZM20.2067 25.8085C20.2067 25.8085 20.2865 25.9677 20.3308 26.0561C20.4814 26.3125 20.7206 26.3918 20.9686 26.2675C21.2165 26.1433 21.2962 25.9042 21.181 25.6301C21.1012 25.4709 21.0303 25.3295 20.9506 25.1703C20.8088 24.8873 20.5431 24.7993 20.2951 24.9235C20.0471 25.0478 19.9586 25.3134 20.1093 25.614C20.1447 25.6847 20.1713 25.7378 20.2067 25.8085Z" fill="white"/>
<path d="M6.41318 11.9894C6.90902 11.2985 7.55547 10.8197 8.35254 10.5088C9.03447 10.2335 9.75187 10.1174 10.4959 10.1428C11.0096 10.1509 11.2132 9.8055 10.9828 9.34571C10.4955 8.37307 9.78671 7.57773 9.05139 6.77359C8.89192 6.588 8.74131 6.4201 8.58184 6.23451C8.73237 6.09271 8.84751 6.05714 8.99812 6.22504C9.85748 7.18828 10.708 8.13383 11.5673 9.09707C11.8686 9.43288 12.1254 9.45904 12.4531 9.14C13.3297 8.28036 14.3127 7.63294 15.5172 7.2064C15.4641 7.32152 15.4286 7.38351 15.411 7.48087C15.3048 7.93232 15.172 8.37496 15.1278 8.81746C15.0748 9.28652 15.2874 9.44549 15.7657 9.42708C16.6602 9.3992 17.4397 9.67235 18.0333 10.3705C18.1042 10.4678 18.1662 10.5915 18.2548 10.7241C17.2275 11.2831 16.1913 11.4263 15.0929 11.0916C15.0221 11.0829 14.9601 11.0476 14.8981 11.0123C14.4552 10.8802 14.1718 11.0665 14.1808 11.5266C14.1898 12.2079 14.0039 12.8099 13.6763 13.3944C13.517 13.6955 13.3044 13.802 12.9767 13.7671C12.339 13.7327 11.7898 13.5211 11.338 13.0617C10.9836 12.7082 10.6736 12.7529 10.4257 13.1869C9.88566 14.1434 9.11525 14.817 8.01707 15.2788C8.00812 14.8629 7.91946 14.4649 7.99024 14.1196C8.08755 13.6505 8.30002 13.1901 8.50363 12.7562C8.72496 12.3134 8.62746 12.0304 8.14915 11.9161C7.5557 11.7931 6.98 11.8382 6.39547 11.9983L6.41318 11.9894Z" fill="white"/>
<path d="M22.0481 21.3496C21.8265 20.9075 21.8531 20.6509 22.1453 20.4823C22.4464 20.3314 22.6944 20.4726 22.916 20.9148C22.9603 21.0032 22.9957 21.0739 23.04 21.1623C23.1641 21.4099 23.0579 21.6844 22.8365 21.8174C22.5885 21.9417 22.3228 21.8536 22.1721 21.5972C22.1278 21.5088 22.0924 21.4381 22.0481 21.3496Z" fill="black"/>
<path d="M20.2136 16.4872C20.2667 16.5933 20.311 16.6817 20.3642 16.7878C20.444 17.0355 20.3289 17.2923 20.1075 17.3811C19.8684 17.4788 19.6558 17.4083 19.5229 17.1873C19.4431 17.0281 19.3634 16.869 19.2836 16.7098C19.1507 16.4445 19.2481 16.1524 19.4783 16.037C19.7086 15.9216 20.0009 16.0185 20.1338 16.2838C20.1692 16.3545 20.2047 16.4253 20.2401 16.496L20.2136 16.4872Z" fill="black"/>
<path d="M16.3357 22.9912C16.38 23.0796 16.4243 23.168 16.4686 23.2564C16.575 23.5129 16.4953 23.7077 16.2739 23.8407C16.0436 23.9561 15.8133 23.9388 15.6627 23.7266C15.521 23.5322 15.4146 23.3199 15.3437 23.09C15.2639 22.8423 15.3613 22.6387 15.6182 22.5321C15.8484 22.4167 16.0699 22.5049 16.2028 22.7259C16.2471 22.8143 16.2914 22.9027 16.3357 22.9912Z" fill="black"/>
<path d="M11.8626 22.4246C11.9246 22.5484 11.9778 22.6545 12.0044 22.7961C12.0664 23.0526 11.9691 23.2563 11.7034 23.3451C11.4642 23.4428 11.2694 23.3635 11.1365 23.1425C11.0479 22.9656 10.9681 22.8065 10.8795 22.6296C10.7554 22.382 10.8439 22.1164 11.0831 21.9745C11.3133 21.8591 11.579 21.9472 11.7385 22.177C11.7828 22.2655 11.8183 22.3362 11.8626 22.4246Z" fill="black"/>
<path d="M8.3454 18.5459C8.3454 18.5459 8.28338 18.4222 8.24793 18.3514C8.09729 18.0508 8.1858 17.7852 8.43377 17.6609C8.66403 17.5456 8.93862 17.6513 9.08925 17.9077C9.16014 18.0492 9.22217 18.173 9.29306 18.3145C9.4437 18.6151 9.33748 18.8896 9.08951 19.0138C8.84154 19.1381 8.58466 19.0234 8.42517 18.7493C8.38972 18.6786 8.36314 18.6256 8.32769 18.5548L8.3454 18.5459Z" fill="black"/>
<path d="M15.3334 16.7048C15.3334 16.7048 15.4131 16.864 15.4574 16.9524C15.5549 17.1912 15.4841 17.4037 15.245 17.5456C14.997 17.6698 14.7756 17.6259 14.625 17.4138C14.4921 17.237 14.3946 17.0425 14.3325 16.8302C14.2262 16.5737 14.3413 16.317 14.5627 16.2281C14.7929 16.1128 15.0587 16.2009 15.2093 16.4573C15.2536 16.5457 15.2979 16.6341 15.3422 16.7225L15.3334 16.7048Z" fill="black"/>
<path d="M22.1433 11.4121C22.3648 11.8542 22.3383 12.1109 22.0638 12.2706C21.7627 12.4214 21.5235 12.2979 21.2931 11.8381C21.2399 11.732 21.1956 11.6436 21.1425 11.5375C21.0538 11.2722 21.1601 11.0419 21.3903 10.9266C21.6206 10.8112 21.8597 10.8905 22.0015 11.1292C22.0458 11.2176 22.0901 11.306 22.1344 11.3944L22.1433 11.4121Z" fill="black"/>
<path d="M20.2068 25.8048C20.2068 25.8048 20.1448 25.681 20.1094 25.6103C19.9587 25.3097 20.0472 25.0441 20.2952 24.9198C20.5432 24.7956 20.7912 24.8925 20.9507 25.1666C21.0304 25.3258 21.1013 25.4672 21.1811 25.6264C21.2963 25.9005 21.1989 26.1484 20.9687 26.2638C20.7207 26.3881 20.4815 26.3088 20.3309 26.0524C20.2866 25.964 20.2511 25.8932 20.2068 25.8048Z" fill="black"/>
</g>
<defs>
<clipPath id="clip0_124_2735">
<rect width="21" height="27" fill="white" transform="translate(0 9.40625) rotate(-26.6143)"/>
</clipPath>
</defs>
</svg>
