<svg width="24" height="27" viewBox="0 0 24 27" fill="none" xmlns="http://www.w3.org/2000/svg">
<g clip-path="url(#clip0_124_1966)">
<path d="M24.0001 16.983C23.9455 17.369 23.891 17.7366 23.8182 18.1225C23.2546 20.8611 21.7455 22.9748 19.5273 24.6106C17.5637 26.0442 15.3455 26.8162 12.9455 26.9816C9.65461 27.2022 6.67279 26.3567 4.05461 24.2982C2.00006 22.6991 0.618244 20.6222 0.145517 18.0123C-0.381756 15.1266 0.363699 12.5534 2.09097 10.2376C2.94552 9.09803 4.00006 8.17903 5.21824 7.44384C5.27279 7.40708 5.32734 7.37032 5.41824 7.31518C5.14552 7.2049 4.90915 7.09462 4.67279 7.0211C4.43643 6.9292 4.25461 6.80054 4.21824 6.52485C4.20006 6.24915 4.34552 6.10211 4.5637 5.95507C5.90915 5.16474 7.3637 4.94418 8.89097 5.1096C9.40006 5.16474 9.90915 5.27502 10.3819 5.34854C10.5819 4.42954 10.7637 3.49217 10.9819 2.5548C11.091 2.13206 11.2728 1.72771 11.4182 1.30497C11.691 0.661675 12.091 0.165419 12.7819 0C12.9637 0 13.1273 0 13.3092 0C13.3637 0 13.4001 0.0367597 13.4546 0.0551395C14.091 0.257318 14.4728 0.698434 14.6001 1.36011C14.6728 1.74609 14.5455 2.0953 14.4001 2.42614C13.9819 3.34513 13.7637 4.30089 13.6546 5.31178C14.1455 5.23826 14.6001 5.14636 15.0546 5.09122C16.5637 4.94418 18.0182 5.14636 19.3455 5.93669C19.5819 6.06535 19.7273 6.23077 19.691 6.52485C19.6546 6.80054 19.4728 6.91082 19.2364 7.00272C19.0182 7.07624 18.8001 7.18652 18.5637 7.27842C18.6001 7.31518 18.6001 7.33356 18.6182 7.33356C18.691 7.3887 18.7819 7.44384 18.8546 7.4806C21.3455 9.07965 23.0546 11.2668 23.7637 14.2076C23.8728 14.6671 23.9273 15.145 24.0001 15.6045V16.983ZM7.18188 8.54663C6.98188 8.39959 6.80006 8.28931 6.63643 8.14227C6.49097 8.01361 6.3637 7.99523 6.18188 8.10551C4.90915 8.82233 3.80006 9.72294 2.92734 10.9176C1.09097 13.3989 0.527335 16.1375 1.52734 19.0967C2.38188 21.6147 4.10915 23.3976 6.41824 24.6106C8.78188 25.8605 11.3092 26.228 13.9273 25.8053C16.6001 25.3826 18.9092 24.2246 20.7092 22.1477C22.4182 20.1811 23.2364 17.8836 22.891 15.2553C22.4364 11.9469 20.5455 9.63104 17.7092 8.03199C17.6546 7.99523 17.5455 7.97685 17.5092 8.03199C17.2728 8.19741 17.0364 8.38121 16.8001 8.54663C16.8364 8.58339 16.8546 8.62015 16.891 8.63853C17.7455 9.41048 18.2364 10.3662 18.4728 11.4874C18.5273 11.7447 18.5637 12.0204 18.3092 12.2042C18.0546 12.388 17.8182 12.2961 17.5819 12.1491C17.1092 11.855 16.5819 11.6161 16.0182 11.5977C15.3637 11.5609 14.7092 11.5977 14.0182 11.5793C14.0182 11.5793 14.0182 11.6161 13.9819 11.6896C13.691 12.627 13.091 13.3254 12.291 13.8584C12.091 13.9871 11.891 14.0054 11.7092 13.8584C10.9819 13.3622 10.3819 12.7556 10.0728 11.8918C10.0182 11.7631 9.98188 11.6344 9.94552 11.5425C9.41824 11.5425 8.92734 11.5425 8.43643 11.5793C8.03643 11.5977 7.63643 11.6161 7.25461 11.7263C6.90915 11.8182 6.58188 12.0388 6.23643 12.2042C6.03643 12.2961 5.85461 12.3145 5.67279 12.2042C5.49097 12.0756 5.41824 11.9101 5.45461 11.6712C5.45461 11.5793 5.49097 11.4874 5.50915 11.3955C5.7637 10.2743 6.29097 9.31858 7.18188 8.52825V8.54663ZM11.9819 12.774C12.6364 12.2042 13.091 11.5609 13.0728 10.6419C13.0728 10.4765 13.2001 10.2927 13.3273 10.1641C13.4728 10.0354 13.691 10.0538 13.8546 10.1824C14.2546 10.5133 14.7273 10.5684 15.2364 10.55C15.691 10.55 16.1455 10.5684 16.6182 10.6052C16.7819 10.6052 16.9455 10.6971 17.1455 10.7338C16.7819 9.9435 16.2728 9.31858 15.5092 8.95099C15.2546 8.82233 15.0546 8.67529 15.091 8.36283C15.1092 8.08713 15.2728 7.95848 15.6364 7.8482C15.8364 7.79306 16.0546 7.73792 16.2182 7.62764C16.7819 7.24166 17.3273 6.8373 17.891 6.43295C17.891 6.41457 17.891 6.37781 17.891 6.35943C17.4182 6.26753 16.9455 6.15725 16.4728 6.12049C15.4182 6.02859 14.3819 6.19401 13.3637 6.52485C12.8364 6.69027 12.5273 6.43295 12.5637 5.88155C12.6001 5.3853 12.6546 4.90742 12.7455 4.41116C12.891 3.51055 13.1455 2.6467 13.5273 1.83799C13.6728 1.52553 13.5637 1.23145 13.291 1.10279C13.0182 0.974132 12.7455 1.10279 12.6001 1.37849C12.5455 1.47039 12.5092 1.58067 12.4546 1.69095C11.8728 3.06944 11.6001 4.50306 11.5273 5.99183C11.5273 6.21239 11.4728 6.45133 11.2546 6.52485C11.091 6.57999 10.8546 6.57999 10.691 6.52485C9.65461 6.19401 8.61824 6.02859 7.52734 6.12049C7.05461 6.15725 6.58188 6.28591 6.10915 6.37781C6.32734 6.59837 6.5637 6.74541 6.7637 6.91082C7.32734 7.35194 7.87279 7.79306 8.58188 7.95848C8.70915 7.99523 8.83643 8.19741 8.89097 8.36283C8.9637 8.56501 8.87279 8.74881 8.69097 8.85909C8.61825 8.91423 8.52734 8.95099 8.43643 8.98775C7.70915 9.37372 7.20006 9.98026 6.83643 10.789C7.52734 10.5317 8.20006 10.5133 8.87279 10.5684C9.30915 10.6052 9.72734 10.4949 10.091 10.2192C10.2546 10.0905 10.4546 10.0722 10.6546 10.1824C10.8546 10.2927 10.9273 10.4581 10.9273 10.6787C10.891 11.5793 11.3455 12.2226 12.0001 12.774H11.9819Z" fill="black"/>
<path d="M7.182 8.54384C6.29109 9.3158 5.782 10.2899 5.50927 11.4111C5.49109 11.503 5.47291 11.5949 5.45473 11.6868C5.41837 11.9074 5.49109 12.0912 5.67291 12.2198C5.85473 12.3485 6.03655 12.3301 6.23655 12.2198C6.56382 12.0544 6.89109 11.8338 7.25473 11.7419C7.63655 11.6317 8.03655 11.6133 8.43655 11.5949C8.92746 11.5581 9.41837 11.5581 9.94564 11.5581C9.982 11.6317 10.0184 11.7603 10.0729 11.9074C10.382 12.7528 10.9638 13.3777 11.7093 13.874C11.8911 14.0027 12.1093 13.9843 12.2911 13.874C13.0911 13.341 13.6911 12.6425 13.982 11.7052C13.982 11.65 14.0184 11.5949 14.0184 11.5949C14.7093 11.5949 15.3638 11.5949 16.0184 11.6133C16.582 11.6317 17.0911 11.8706 17.582 12.1647C17.8184 12.3117 18.0547 12.4036 18.3093 12.2198C18.5638 12.036 18.5456 11.7603 18.4729 11.503C18.2184 10.4002 17.7456 9.42608 16.8911 8.65412C16.8729 8.63574 16.8365 8.59898 16.8002 8.56222C17.0365 8.37842 17.2729 8.19463 17.5093 8.04759C17.5638 8.01083 17.6547 8.04759 17.7093 8.04759C20.5456 9.64663 22.4365 11.9625 22.8911 15.2709C23.2547 17.8808 22.4184 20.1967 20.7093 22.1633C18.9093 24.2402 16.6002 25.3982 13.9275 25.8209C11.2911 26.2436 8.782 25.8577 6.41837 24.6262C4.10927 23.4131 2.382 21.6487 1.52746 19.1123C0.527456 16.1531 1.09109 13.4145 2.92746 10.9332C3.80018 9.75691 4.90927 8.83792 6.182 8.12111C6.36382 8.01083 6.49109 8.02921 6.63655 8.15787C6.80018 8.30491 6.982 8.41518 7.182 8.56222V8.54384ZM21.9456 16.0428C21.8911 15.6752 21.782 15.0503 21.6729 14.4438C21.6184 14.1865 21.4547 14.0578 21.2002 14.0394C20.9456 14.0394 20.7638 14.1497 20.7093 14.3886C20.6729 14.5357 20.6911 14.7011 20.7093 14.8481C20.982 15.9877 20.9275 17.1272 20.582 18.2484C20.1638 19.5901 19.4002 20.7113 18.3638 21.6303C18.0911 21.8692 18.0547 22.1817 18.2729 22.4206C18.4729 22.6412 18.782 22.6596 19.0365 22.4206C20.8729 20.8032 21.8547 18.7814 21.9456 16.0428ZM20.3456 13.1388C20.6365 13.1388 20.8729 12.8999 20.8729 12.6058C20.8729 12.3301 20.6365 12.0912 20.3456 12.0912C20.0729 12.0912 19.8365 12.3301 19.8184 12.6058C19.8184 12.8999 20.0547 13.1388 20.3456 13.1388Z" fill="white"/>
<path d="M11.982 12.7712C11.3274 12.2198 10.8729 11.5765 10.9092 10.6759C10.9092 10.4553 10.8365 10.2899 10.6365 10.1796C10.4365 10.0693 10.2547 10.0877 10.0729 10.2164C9.70925 10.4921 9.29106 10.6023 8.8547 10.5656C8.18197 10.5104 7.52743 10.5104 6.81834 10.7861C7.18197 9.97743 7.69106 9.37089 8.41834 8.98492C8.50925 8.94816 8.60016 8.9114 8.67288 8.85626C8.83652 8.7276 8.94561 8.5438 8.87288 8.36C8.81834 8.19459 8.69106 7.99241 8.56379 7.95565C7.83652 7.79023 7.30925 7.34911 6.74561 6.908C6.54561 6.74258 6.32743 6.61392 6.09106 6.37498C6.56379 6.28308 7.03652 6.1728 7.50925 6.11766C8.58197 6.02576 9.63652 6.19118 10.6729 6.52202C10.8547 6.57716 11.0729 6.57716 11.2365 6.52202C11.4547 6.4485 11.4911 6.22794 11.5092 5.989C11.582 4.50024 11.8547 3.06661 12.4365 1.68812C12.4729 1.57784 12.5274 1.48594 12.582 1.37566C12.7456 1.08158 13.0002 0.971304 13.2729 1.09996C13.5456 1.22862 13.6547 1.5227 13.5092 1.83516C13.1092 2.66225 12.8729 3.5261 12.7274 4.40834C12.6547 4.88621 12.6002 5.38247 12.5456 5.87872C12.4911 6.43012 12.8183 6.68744 13.3456 6.52202C14.3638 6.19118 15.4002 6.02576 16.4547 6.11766C16.9274 6.15442 17.4002 6.28308 17.8729 6.3566C17.8729 6.37498 17.8729 6.41174 17.8729 6.43012C17.3092 6.83448 16.7638 7.23883 16.2002 7.62481C16.0365 7.73509 15.8183 7.79023 15.6183 7.84537C15.2547 7.95565 15.0911 8.08431 15.0729 8.36C15.0547 8.67246 15.2365 8.8195 15.4911 8.94816C16.2547 9.31575 16.7638 9.94067 17.1274 10.731C16.9274 10.6759 16.7638 10.6023 16.6002 10.6023C16.1456 10.5656 15.6911 10.5472 15.2183 10.5472C14.7274 10.5472 14.2547 10.5104 13.8365 10.1796C13.6729 10.0509 13.4547 10.0142 13.3092 10.1612C13.182 10.2715 13.0547 10.4737 13.0547 10.6391C13.0729 11.5581 12.6365 12.2014 11.9638 12.7712H11.982Z" fill="white"/>
<path d="M21.9456 16.0425C21.8546 18.7811 20.8546 20.8028 19.0365 22.4203C18.7819 22.6592 18.4728 22.6408 18.2728 22.4203C18.0546 22.1813 18.091 21.8689 18.3637 21.6299C19.4183 20.7109 20.1637 19.5898 20.5819 18.248C20.9274 17.1269 20.9819 15.9873 20.7092 14.8478C20.6728 14.7007 20.6546 14.5169 20.7092 14.3883C20.7819 14.1493 20.9637 14.0391 21.2001 14.0391C21.4546 14.0391 21.6365 14.1861 21.6728 14.4434C21.7819 15.0683 21.891 15.6932 21.9456 16.0425Z" fill="black"/>
<path d="M20.3456 13.1414C20.0547 13.1414 19.8184 12.8841 19.8184 12.6084C19.8184 12.3327 20.0547 12.0938 20.3456 12.0938C20.6184 12.0938 20.8547 12.3327 20.8729 12.6084C20.8729 12.9025 20.6365 13.1414 20.3456 13.1414Z" fill="black"/>
</g>
<defs>
<clipPath id="clip0_124_1966">
<rect width="24" height="27" fill="white"/>
</clipPath>
</defs>
</svg>
