<svg width="43" height="43" viewBox="0 0 43 43" fill="none" xmlns="http://www.w3.org/2000/svg">
<g clip-path="url(#clip0_137_355)">
<path d="M0 21.9271C0.236469 21.5837 0.562547 21.4966 0.973256 21.4991C4.14941 21.514 7.32805 21.5065 10.5042 21.5065C15.4626 21.5065 19.4502 24.1542 21.3718 28.7205C21.4017 28.7926 21.4415 28.8598 21.5037 28.9867C21.5958 28.7827 21.6606 28.6359 21.7278 28.489C23.8062 24.0397 27.2935 21.6558 32.2096 21.5215C35.5102 21.4319 38.8157 21.504 42.1188 21.504C42.776 21.504 43.005 21.728 42.9975 22.3874C42.9801 23.8556 43.0299 25.3312 42.9079 26.7895C42.4972 31.7091 38.42 36.0215 33.5188 36.7755C32.802 36.885 32.0727 36.9373 31.3458 36.9447C28.8691 36.9646 26.3924 36.9522 23.8485 36.9522V37.4051C23.8485 38.9454 23.8361 40.4833 23.856 42.0236C23.861 42.4342 23.7689 42.7602 23.4278 42.9966H22.925C22.584 42.7602 22.4919 42.4342 22.4969 42.0236C22.5168 40.4857 22.5044 38.9454 22.5044 37.4076V36.9746H20.4882V37.4499C20.4882 38.9753 20.4757 40.5007 20.4956 42.0236C20.5006 42.4342 20.4085 42.7602 20.0675 42.9966H19.5647C19.2237 42.7602 19.1316 42.4342 19.1366 42.0236C19.1565 40.4857 19.144 38.9479 19.144 37.4101C19.144 37.2632 19.144 37.1164 19.144 36.9497C18.93 36.9497 18.7756 36.9497 18.6238 36.9497C16.177 36.9497 13.7301 36.9671 11.2808 36.9447C6.20793 36.895 1.76729 33.4734 0.418177 28.5811C0.23398 27.8918 0.139392 27.1702 0 26.461C0 24.9505 0 23.4375 0 21.9271ZM20.8142 33.981C20.8142 33.4286 20.8391 32.8562 20.8068 32.2864C20.7794 31.8136 20.7147 31.3383 20.6151 30.8754C19.5746 26.1026 15.5646 22.8652 10.6784 22.8528C7.71138 22.8453 4.74431 22.8528 1.77725 22.8528C1.64284 22.8528 1.50593 22.8652 1.29436 22.8752C1.34663 24.2861 1.26946 25.6846 1.47606 27.0408C2.24521 32.0749 6.43195 35.601 11.5347 35.6134C14.2927 35.6184 17.0482 35.6134 19.8061 35.6134C19.9231 35.6134 20.0401 35.601 20.2119 35.591C19.2511 34.2199 18.1981 33.0105 17.0432 31.8907C15.0145 29.9199 12.732 28.2875 10.2827 26.884C9.81968 26.6178 9.6778 26.2495 9.87693 25.8886C10.081 25.5179 10.4718 25.4482 10.9298 25.7095C13.4289 27.1378 15.7762 28.7802 17.8322 30.8033C18.8652 31.821 19.8186 32.9184 20.8118 33.9835L20.8142 33.981ZM22.1833 34.0955C22.2953 33.9686 22.3525 33.9113 22.3998 33.8491C24.4932 31.1616 27.0072 28.9245 29.8623 27.0881C31.3757 26.1151 32.9812 25.2815 34.5543 24.4006C34.9601 24.1716 35.3409 24.2936 35.5276 24.6419C35.7217 25.0077 35.5749 25.3735 35.1393 25.6025C35.0024 25.6746 34.863 25.7344 34.7261 25.804C30.6041 27.8918 26.8927 30.5171 23.9132 34.0955C23.5249 34.5633 23.1665 35.056 22.7508 35.591C22.9225 35.601 23.0022 35.6109 23.0819 35.6109C25.9643 35.6109 28.8492 35.6458 31.7316 35.5985C34.7659 35.5512 37.2799 34.3219 39.2688 32.0351C41.5787 29.3799 41.8724 26.2022 41.6036 22.8478C41.5214 22.8478 41.4269 22.8478 41.3323 22.8478C38.2532 22.8478 35.1741 22.8378 32.0951 22.8553C30.2182 22.8652 28.4659 23.3728 26.8977 24.4006C23.4502 26.665 21.9866 29.9249 22.1833 34.093V34.0955Z" fill="black"/>
<path d="M21.4987 21.5315C17.7276 21.5067 14.6535 18.3712 14.7929 14.6585C14.8327 13.5785 15.1115 12.5508 15.7039 11.6425C17.4189 9.00729 19.1539 6.38449 20.8913 3.76168C21.2273 3.25405 21.7824 3.25653 22.1209 3.76915C23.8484 6.37951 25.653 8.94508 27.271 11.6226C29.8547 15.8952 26.915 20.7178 22.5416 21.422C22.1981 21.4768 21.8471 21.4967 21.5011 21.5315H21.4987ZM21.541 5.31446C21.4738 5.35428 21.4414 5.36174 21.429 5.38165C19.8832 7.72824 18.3175 10.0624 16.8041 12.4289C16.1993 13.3745 16.0051 14.4619 16.1669 15.5742C16.6075 18.5753 19.4351 20.5834 22.4669 20.0783C26.0488 19.4811 28.0302 15.4523 26.1658 12.3891C24.7072 9.99021 23.0967 7.68344 21.541 5.31446Z" fill="black"/>
<path d="M29.5662 9.13198C29.5761 8.39292 29.8225 7.42492 30.3751 6.55397C31.6794 4.50102 32.9912 2.45553 34.3055 0.410046C34.6515 -0.127454 35.2165 -0.139896 35.56 0.392627C36.8992 2.47046 38.2757 4.53088 39.5476 6.65102C40.6055 8.41531 40.6354 10.2791 39.5725 12.0658C38.4972 13.8774 36.8668 14.8205 34.7411 14.7807C31.9358 14.7284 29.5612 12.2475 29.5687 9.13198H29.5662ZM34.9228 1.92799C33.7355 3.78684 32.5556 5.56855 31.4455 7.39257C30.5817 8.81346 30.7535 10.5778 31.7765 11.8717C32.8095 13.1806 34.4897 13.7331 36.0504 13.2752C38.6192 12.5237 39.7692 9.55999 38.3553 7.25322C37.295 5.52625 36.1773 3.83661 35.0846 2.13204C35.0498 2.07729 35.0025 2.02752 34.9228 1.92799Z" fill="black"/>
<path d="M13.4364 9.16425C13.4463 12.1728 11.2061 14.5816 8.44315 14.7781C5.725 14.9722 3.17612 12.9367 2.75794 10.2442C2.55383 8.93283 2.78283 7.70106 3.48228 6.58376C4.77913 4.5109 6.10833 2.45795 7.43256 0.402505C7.77606 -0.132507 8.3411 -0.134995 8.68709 0.400017C10.0188 2.4679 11.3505 4.53578 12.6623 6.61611C13.1974 7.46217 13.4239 8.41026 13.4339 9.16425H13.4364ZM8.06231 1.91298C6.93722 3.66981 5.85195 5.36194 4.76917 7.05407C4.65716 7.23075 4.54764 7.40991 4.45554 7.59903C3.16865 10.2218 5.02057 13.3647 7.91296 13.4369C9.48361 13.4767 10.6983 12.775 11.5098 11.4486C12.3237 10.1198 12.2839 8.73873 11.5496 7.38254C11.2833 6.89232 10.9597 6.43445 10.6585 5.96414C9.8072 4.63532 8.95591 3.30899 8.05982 1.91547L8.06231 1.91298Z" fill="black"/>
<path d="M8.732 24.9407C8.73698 25.3065 8.43828 25.6126 8.07237 25.6176C7.70647 25.6226 7.4003 25.3264 7.39532 24.9582C7.39035 24.5949 7.69153 24.2863 8.05495 24.2813C8.41587 24.2763 8.72702 24.5799 8.732 24.9407Z" fill="black"/>
<path d="M21.7129 18.1486C21.1653 18.1536 20.8592 17.9122 20.8343 17.5216C20.8094 17.1209 21.0956 16.8447 21.5835 16.8074C22.146 16.7651 22.6688 16.5884 23.0347 16.1604C23.2562 15.8991 23.413 15.5507 23.5026 15.2173C23.6171 14.8017 23.8511 14.528 24.222 14.5479C24.6128 14.5703 24.8791 14.8863 24.8517 15.3317C24.8094 16.0633 24.4809 16.6655 23.9581 17.1657C23.3035 17.7878 22.5144 18.0964 21.7104 18.1486H21.7129Z" fill="black"/>
<path d="M37.6233 9.5324C37.5934 10.8314 36.3439 12.0731 35.0421 12.0955C34.6139 12.1029 34.3103 11.8641 34.2729 11.4908C34.2331 11.1026 34.5019 10.8139 34.955 10.7567C35.7092 10.6597 36.1846 10.1844 36.2842 9.42789C36.3414 8.99988 36.6202 8.73113 36.9886 8.75104C37.3769 8.77094 37.6358 9.08946 37.6258 9.53489L37.6233 9.5324Z" fill="black"/>
<path d="M7.93286 12.0942C6.65344 12.0494 5.45118 10.8724 5.38148 9.59082C5.3541 9.11304 5.59804 8.78457 5.99879 8.75222C6.37963 8.72236 6.6609 8.99608 6.71815 9.45395C6.80776 10.1656 7.31057 10.6633 8.02993 10.7554C8.49042 10.8151 8.75925 11.0888 8.72689 11.4746C8.69702 11.8652 8.3809 12.1091 7.93037 12.0942H7.93286Z" fill="black"/>
</g>
<defs>
<clipPath id="clip0_137_355">
<rect width="43" height="43" fill="white"/>
</clipPath>
</defs>
</svg>
