<svg width="42" height="42" viewBox="0 0 42 42" fill="none" xmlns="http://www.w3.org/2000/svg">
<g clip-path="url(#clip0_137_366)">
<path d="M42.0001 27.9999C41.7977 29.1783 40.9858 29.8977 40.11 30.595C36.5257 33.4505 32.7521 36.0213 28.8377 38.4001C26.5318 39.8013 24.0498 40.4677 21.3896 40.4258C17.7854 40.3706 14.1835 40.2184 10.5793 40.1301C9.20851 40.097 7.8377 40.1257 6.43609 40.1257C6.40308 40.3067 6.37888 40.5119 6.33047 40.7127C6.14784 41.4519 5.52295 41.9771 4.76603 41.9904C3.72528 42.008 2.68232 42.0124 1.64156 41.9904C0.702015 41.9705 0.0265119 41.2335 0.00890925 40.2228C-0.00869343 39.2232 0.00450858 38.2257 0.00450858 37.2261C0.00450858 35.0172 0.00450858 32.8061 0.00450858 30.5972C0.00450858 29.271 0.655808 28.6222 1.97821 28.62C2.83854 28.62 3.69887 28.631 4.5592 28.6156C5.1973 28.6046 5.69238 28.8407 6.09064 29.3416C6.16765 29.4387 6.39868 29.5027 6.5131 29.4608C7.16 29.2136 7.7981 28.9422 8.42519 28.6465C8.54841 28.5891 8.67603 28.3883 8.68043 28.2515C8.70463 27.435 8.70683 26.6163 8.68043 25.7998C8.67383 25.6101 8.57041 25.3982 8.4538 25.2393C7.09399 23.3725 7.1358 20.4243 8.55941 18.6568C9.1447 17.9286 9.50996 17.9264 10.1018 18.648C11.5453 20.4133 11.5805 23.3923 10.1987 25.2636C10.0666 25.4424 9.98523 25.6939 9.97423 25.9168C9.94562 26.5612 9.96323 27.2077 9.96323 27.9227C13.1097 26.4023 16.3398 26.0029 19.7591 26.6737C19.7591 25.7425 19.7701 24.8223 19.7415 23.9065C19.7393 23.816 19.4929 23.6991 19.3411 23.6527C17.2067 23.0018 15.8073 21.6248 15.2638 19.4446C14.9184 18.061 15.332 17.6814 16.7315 17.9859C17.7502 18.2066 18.6039 18.7208 19.3543 19.4291C19.4533 19.5218 19.5501 19.6167 19.6513 19.7072C19.6579 19.7138 19.6777 19.7072 19.7503 19.6983C19.7503 18.8841 19.7613 18.061 19.7393 17.2401C19.7371 17.1121 19.5985 16.9819 19.5105 16.8627C18.1419 14.9915 18.2123 11.9992 19.6689 10.2493C20.2146 9.5961 20.5842 9.59389 21.1255 10.2427C22.5866 11.9926 22.657 14.9738 21.3038 16.8605C21.1519 17.0746 21.0617 17.3747 21.0485 17.6395C21.0133 18.3258 21.0375 19.0143 21.0375 19.7932C21.3874 19.4865 21.6426 19.2371 21.922 19.0187C22.7626 18.3633 23.6955 17.9352 24.7781 17.8977C25.4162 17.8756 25.6318 18.0897 25.6208 18.7186C25.5856 20.8502 23.7087 23.1077 21.504 23.6285C21.1453 23.7123 21.0089 23.8315 21.0243 24.2177C21.0573 25.0496 21.0529 25.8837 21.0243 26.7134C21.0133 27.0621 21.1519 27.2033 21.4468 27.3489C22.2411 27.7462 23.042 28.1434 23.7813 28.6332C24.7121 29.2489 25.0839 29.9021 25.315 31.0672C26.1049 30.9459 26.9168 30.8841 27.6935 30.6833C28.6529 30.4339 29.5858 30.0808 30.521 29.7432C30.6574 29.6947 30.8224 29.4806 30.8224 29.3416C30.8378 26.3758 30.8334 23.4078 30.8312 20.442C30.8312 20.3979 30.8136 20.3537 30.7982 20.2809C29.7332 20.0757 28.7849 19.6012 27.9906 18.8399C26.963 17.8558 26.2809 16.6928 26.2369 15.2276C26.2193 14.6296 26.4591 14.4045 27.062 14.431C28.3426 14.4883 29.412 15.0356 30.3361 15.8962C30.4748 16.0264 30.5694 16.2051 30.6838 16.3618C30.7322 16.3309 30.7828 16.3022 30.8312 16.2713C30.8312 15.3887 30.8422 14.5038 30.8158 13.6211C30.8136 13.5373 30.5936 13.4247 30.4549 13.3828C28.2282 12.7164 26.7936 11.282 26.2919 8.99146C26.0323 7.81309 26.3645 7.47988 27.5615 7.65862C28.6221 7.8175 29.5264 8.31842 30.3053 9.04663C30.4549 9.18786 30.5562 9.37984 30.6794 9.54755C30.73 9.51445 30.7806 9.48356 30.8312 9.45046C30.8312 8.80831 30.8444 8.16616 30.8202 7.52622C30.8158 7.39602 30.6882 7.26362 30.6002 7.14667C29.225 5.3107 29.2558 2.3449 30.6728 0.568514C31.2757 -0.186175 31.6431 -0.188382 32.246 0.555274C33.6498 2.28974 33.696 5.27319 32.367 7.10474C32.2218 7.30555 32.136 7.58801 32.1184 7.83736C32.081 8.36035 32.1074 8.88996 32.1074 9.51224C32.2856 9.34674 32.4 9.24082 32.5145 9.1349C33.4342 8.2765 34.486 7.70055 35.7666 7.61007C36.4619 7.56153 36.7149 7.80206 36.6863 8.49275C36.5939 10.6575 34.7302 12.8466 32.5123 13.3585C32.202 13.4313 32.092 13.5328 32.1008 13.8572C32.125 14.6516 32.1096 15.446 32.1096 16.2868C32.5585 15.9227 32.9347 15.5784 33.3484 15.2894C34.1053 14.7598 34.948 14.4486 35.881 14.4243C36.4817 14.4089 36.7039 14.6384 36.6885 15.243C36.6335 17.4166 34.7632 19.6388 32.5343 20.1794C32.4044 20.2103 32.2724 20.2434 32.1294 20.2787V28.9907C32.2306 28.962 32.3164 28.9488 32.3912 28.9113C34.2373 28.0043 36.002 26.9628 37.5906 25.641C39.2695 24.2441 41.4786 25.0385 41.9209 27.1923C41.9385 27.2805 41.9737 27.3644 42.0023 27.4482V27.9933L42.0001 27.9999ZM6.39648 38.8017C6.65832 38.8017 6.85415 38.7973 7.04778 38.8017C8.88726 38.8502 10.7267 38.9032 12.5662 38.9473C15.5367 39.0201 18.5071 39.1194 21.4776 39.1481C23.8935 39.1724 26.1379 38.5523 28.226 37.2791C32.0194 34.9665 35.6873 32.4751 39.1661 29.7079C39.5313 29.4166 39.901 29.1231 40.2354 28.7987C40.8163 28.236 40.8383 27.243 40.3081 26.656C39.791 26.0845 39.0693 26.0757 38.3762 26.6428C36.1604 28.4545 33.6806 29.8182 31.049 30.9061C29.1479 31.6939 27.2029 32.3383 25.0993 32.2765C24.9871 32.2743 24.8441 32.4023 24.7605 32.506C24.3578 33.0091 23.8539 33.3379 23.2224 33.4703C22.3291 33.6579 21.4952 33.4571 20.6635 33.1349C18.8988 32.453 17.1341 31.7623 15.1868 32.4376C14.826 32.5612 14.5267 32.3648 14.4277 31.9808C14.3353 31.6167 14.5003 31.3386 14.8502 31.2393C15.3562 31.0959 15.8711 30.937 16.3882 30.9039C18.0077 30.798 19.5017 31.3364 20.9957 31.8749C21.5524 32.0757 22.1531 32.1971 22.7428 32.2434C23.2577 32.2831 23.6559 31.9742 23.8803 31.4887C24.0982 31.0143 23.9618 30.5862 23.6361 30.2353C23.3611 29.9396 23.0618 29.6373 22.712 29.4475C21.867 28.9885 21.0177 28.5008 20.1134 28.1875C17.2771 27.2055 14.4541 27.5056 11.7103 28.5626C9.98303 29.229 8.31297 30.0433 6.62752 30.8157C6.4999 30.8752 6.40088 31.1423 6.39868 31.3122C6.38328 33.6579 6.38768 36.0036 6.38768 38.3493V38.7995L6.39648 38.8017ZM1.2763 35.2644C1.2763 36.8664 1.2741 38.4707 1.2763 40.0727C1.2763 40.5957 1.40172 40.7193 1.9122 40.7215C2.77253 40.7259 3.63066 40.7259 4.49099 40.7215C4.97727 40.7215 5.12249 40.5869 5.12249 40.1125C5.12689 36.9061 5.12689 33.6998 5.12249 30.4957C5.12249 30.0213 4.98167 29.8955 4.48439 29.8933C3.65486 29.8889 2.82534 29.8911 1.99581 29.8933C1.36652 29.8933 1.2741 29.9882 1.2741 30.6391C1.2741 32.1816 1.2741 33.7241 1.2741 35.2666L1.2763 35.2644ZM27.6341 15.8543C27.8409 17.2114 29.588 18.926 30.7058 18.8664C30.4219 17.4762 28.8267 15.9117 27.6341 15.8543ZM16.5664 19.2813C16.7535 20.6538 18.5511 22.4126 19.6337 22.3199C19.3741 20.9782 17.9482 19.5549 16.5664 19.2813ZM9.34493 24.1868C10.1459 23.0569 10.1393 20.8635 9.33173 19.8418C8.52861 20.901 8.53521 23.218 9.34493 24.1868ZM31.4605 1.70055C30.6552 2.92526 30.6552 4.9157 31.4495 6.08966C32.1866 5.29525 32.3274 2.89878 31.4605 1.70055ZM35.2913 9.00912C33.9271 9.2342 32.3362 10.8539 32.2526 12.0764C33.5244 11.9264 35.1241 10.3309 35.2913 9.00912ZM24.2434 19.2879C22.8748 19.5108 21.284 21.1195 21.1915 22.3442C22.4039 22.2625 24.0014 20.6803 24.2434 19.2879ZM32.224 18.9083C33.5816 18.6987 35.1725 17.0878 35.2781 15.8543C34.0701 15.9315 32.4683 17.5159 32.224 18.9083ZM30.6838 12.0742C30.5958 10.7855 28.7101 9.01574 27.6209 9.0378C27.8916 10.4258 29.4318 11.9528 30.6838 12.0742ZM20.4016 11.4762C19.5897 12.5531 19.5985 14.8855 20.417 15.8388C21.2069 14.656 21.2003 12.5509 20.4016 11.4762Z" fill="black"/>
</g>
<defs>
<clipPath id="clip0_137_366">
<rect width="42" height="42" fill="white"/>
</clipPath>
</defs>
</svg>
